%FSAX24Y24*%
%MOIN*%
G70*
G01*
G75*
G04 Layer_Physical_Order=1*
G04 Layer_Color=255*
%ADD10R,0.0350X0.0200*%
%ADD11R,0.0200X0.0350*%
%ADD12R,0.0300X0.0550*%
%ADD13R,0.0550X0.0300*%
%ADD14R,0.0600X0.0600*%
%ADD15R,0.0600X0.0600*%
%ADD16R,0.1000X0.0600*%
%ADD17R,0.0240X0.0760*%
%ADD18R,0.1181X0.0787*%
%ADD19O,0.0500X0.0984*%
%ADD20O,0.0118X0.0689*%
%ADD21O,0.0689X0.0118*%
%ADD22R,0.0650X0.0400*%
%ADD23C,0.0600*%
G04:AMPARAMS|DCode=24|XSize=59.1mil|YSize=118.1mil|CornerRadius=5.9mil|HoleSize=0mil|Usage=FLASHONLY|Rotation=180.000|XOffset=0mil|YOffset=0mil|HoleType=Round|Shape=RoundedRectangle|*
%AMROUNDEDRECTD24*
21,1,0.0591,0.1063,0,0,180.0*
21,1,0.0472,0.1181,0,0,180.0*
1,1,0.0118,-0.0236,0.0532*
1,1,0.0118,0.0236,0.0532*
1,1,0.0118,0.0236,-0.0532*
1,1,0.0118,-0.0236,-0.0532*
%
%ADD24ROUNDEDRECTD24*%
G04:AMPARAMS|DCode=25|XSize=100mil|YSize=50mil|CornerRadius=5mil|HoleSize=0mil|Usage=FLASHONLY|Rotation=180.000|XOffset=0mil|YOffset=0mil|HoleType=Round|Shape=RoundedRectangle|*
%AMROUNDEDRECTD25*
21,1,0.1000,0.0400,0,0,180.0*
21,1,0.0900,0.0500,0,0,180.0*
1,1,0.0100,-0.0450,0.0200*
1,1,0.0100,0.0450,0.0200*
1,1,0.0100,0.0450,-0.0200*
1,1,0.0100,-0.0450,-0.0200*
%
%ADD25ROUNDEDRECTD25*%
%ADD26R,0.2008X0.2000*%
%ADD27R,0.0315X0.0984*%
G04:AMPARAMS|DCode=28|XSize=275.6mil|YSize=137.8mil|CornerRadius=13.8mil|HoleSize=0mil|Usage=FLASHONLY|Rotation=180.000|XOffset=0mil|YOffset=0mil|HoleType=Round|Shape=RoundedRectangle|*
%AMROUNDEDRECTD28*
21,1,0.2756,0.1102,0,0,180.0*
21,1,0.2480,0.1378,0,0,180.0*
1,1,0.0276,-0.1240,0.0551*
1,1,0.0276,0.1240,0.0551*
1,1,0.0276,0.1240,-0.0551*
1,1,0.0276,-0.1240,-0.0551*
%
%ADD28ROUNDEDRECTD28*%
%ADD29R,0.0850X0.0421*%
G04:AMPARAMS|DCode=30|XSize=417.3mil|YSize=236.2mil|CornerRadius=23.6mil|HoleSize=0mil|Usage=FLASHONLY|Rotation=90.000|XOffset=0mil|YOffset=0mil|HoleType=Round|Shape=RoundedRectangle|*
%AMROUNDEDRECTD30*
21,1,0.4173,0.1890,0,0,90.0*
21,1,0.3701,0.2362,0,0,90.0*
1,1,0.0472,0.0945,0.1850*
1,1,0.0472,0.0945,-0.1850*
1,1,0.0472,-0.0945,-0.1850*
1,1,0.0472,-0.0945,0.1850*
%
%ADD30ROUNDEDRECTD30*%
%ADD31C,0.0100*%
%ADD32C,0.0200*%
%ADD33C,0.0080*%
%ADD34C,0.0250*%
%ADD35R,0.2350X0.4000*%
%ADD36R,0.5200X0.0300*%
%ADD37R,0.2200X0.3700*%
%ADD38R,0.3100X0.0700*%
%ADD39C,0.0591*%
%ADD40R,0.0591X0.0591*%
%ADD41P,0.0649X8X112.5*%
%ADD42R,0.0591X0.0591*%
%ADD43P,0.0649X8X22.5*%
%ADD44R,0.0591X0.1575*%
%ADD45C,0.0787*%
G04:AMPARAMS|DCode=46|XSize=78.7mil|YSize=78.7mil|CornerRadius=19.7mil|HoleSize=0mil|Usage=FLASHONLY|Rotation=0.000|XOffset=0mil|YOffset=0mil|HoleType=Round|Shape=RoundedRectangle|*
%AMROUNDEDRECTD46*
21,1,0.0787,0.0394,0,0,0.0*
21,1,0.0394,0.0787,0,0,0.0*
1,1,0.0394,0.0197,-0.0197*
1,1,0.0394,-0.0197,-0.0197*
1,1,0.0394,-0.0197,0.0197*
1,1,0.0394,0.0197,0.0197*
%
%ADD46ROUNDEDRECTD46*%
%ADD47C,0.1969*%
%ADD48R,0.0610X0.0610*%
%ADD49C,0.0610*%
%ADD50R,0.1969X0.0591*%
%ADD51C,0.0984*%
G04:AMPARAMS|DCode=52|XSize=98.4mil|YSize=98.4mil|CornerRadius=9.8mil|HoleSize=0mil|Usage=FLASHONLY|Rotation=90.000|XOffset=0mil|YOffset=0mil|HoleType=Round|Shape=RoundedRectangle|*
%AMROUNDEDRECTD52*
21,1,0.0984,0.0787,0,0,90.0*
21,1,0.0787,0.0984,0,0,90.0*
1,1,0.0197,0.0394,0.0394*
1,1,0.0197,0.0394,-0.0394*
1,1,0.0197,-0.0394,-0.0394*
1,1,0.0197,-0.0394,0.0394*
%
%ADD52ROUNDEDRECTD52*%
%ADD53C,0.0360*%
%ADD54C,0.0400*%
G36*
X112162Y062445D02*
X081135D01*
Y097409D01*
X083852D01*
X083868Y097362D01*
X083829Y097332D01*
X083768Y097252D01*
X083730Y097160D01*
X083723Y097111D01*
X084477D01*
X084470Y097160D01*
X084432Y097252D01*
X084371Y097332D01*
X084292Y097393D01*
X084295Y097409D01*
X099474D01*
X099493Y097363D01*
X099270Y097140D01*
X099230Y097081D01*
X099228Y097069D01*
X099223Y097046D01*
X099015D01*
Y096744D01*
X098030D01*
Y096916D01*
X097570D01*
Y096206D01*
X097616D01*
Y095916D01*
X097570D01*
Y095206D01*
X098030D01*
Y095916D01*
X097984D01*
Y096206D01*
X098030D01*
Y096377D01*
X099015D01*
Y096276D01*
X099785D01*
Y097046D01*
D01*
Y097046D01*
X099816Y097077D01*
X100271D01*
X100281Y097028D01*
X100206Y096997D01*
X100125Y096935D01*
X100064Y096855D01*
X100025Y096761D01*
X100018Y096711D01*
X100782D01*
X100775Y096761D01*
X100736Y096855D01*
X100675Y096935D01*
X100594Y096997D01*
X100519Y097028D01*
X100529Y097077D01*
X101271D01*
X101281Y097028D01*
X101206Y096997D01*
X101125Y096935D01*
X101064Y096855D01*
X101025Y096761D01*
X101012Y096661D01*
X101025Y096560D01*
X101064Y096466D01*
X101125Y096386D01*
X101206Y096324D01*
X101299Y096285D01*
X101400Y096272D01*
X101501Y096285D01*
X101594Y096324D01*
X101675Y096386D01*
X101736Y096466D01*
X101775Y096560D01*
X101788Y096661D01*
X101775Y096761D01*
X101736Y096855D01*
X101675Y096935D01*
X101594Y096997D01*
X101519Y097028D01*
X101529Y097077D01*
X104724D01*
X105366Y096435D01*
Y092661D01*
X105378Y092602D01*
X105380Y092590D01*
X105420Y092531D01*
X105970Y091981D01*
X106010Y091954D01*
X106030Y091941D01*
X106100Y091927D01*
X106450D01*
Y091651D01*
X106466D01*
Y091561D01*
X106478Y091502D01*
X106480Y091490D01*
X106520Y091431D01*
X106872Y091079D01*
X106853Y091033D01*
X106801D01*
X105337Y092497D01*
X105297Y092524D01*
X105250Y092533D01*
X104980D01*
Y092666D01*
X104620D01*
Y092156D01*
X104620Y092156D01*
X104620Y092116D01*
X104620D01*
Y091606D01*
X104620Y091606D01*
X104620Y091566D01*
X104620D01*
Y091056D01*
X104980D01*
Y091188D01*
X105847D01*
X106528Y090507D01*
Y090321D01*
X106450D01*
Y089401D01*
X106850D01*
Y090321D01*
X106772D01*
Y090558D01*
X106763Y090605D01*
X106752Y090621D01*
X106756Y090628D01*
X106859D01*
X107028Y090460D01*
Y090321D01*
X106950D01*
Y089401D01*
X107350D01*
Y089738D01*
X107450D01*
Y089401D01*
X107850D01*
Y090321D01*
X107450D01*
Y089983D01*
X107350D01*
Y090321D01*
X107272D01*
Y090511D01*
X107263Y090558D01*
X107237Y090597D01*
X107162Y090672D01*
X107181Y090718D01*
X107869D01*
X108028Y090560D01*
Y090321D01*
X107950D01*
Y089401D01*
X108350D01*
Y090321D01*
X108272D01*
Y090611D01*
X108263Y090658D01*
X108237Y090697D01*
X108103Y090831D01*
X108122Y090877D01*
X108324D01*
X109216Y089985D01*
Y088861D01*
X109228Y088802D01*
X109230Y088790D01*
X109270Y088731D01*
X109670Y088331D01*
X109710Y088304D01*
X109730Y088291D01*
X109800Y088277D01*
X110325D01*
Y088085D01*
X111075D01*
Y088836D01*
X110325D01*
Y088644D01*
X109876D01*
X109584Y088937D01*
Y090061D01*
X109570Y090131D01*
X109530Y090190D01*
X108530Y091190D01*
X108470Y091230D01*
X108459Y091233D01*
X108400Y091244D01*
X107226D01*
X106834Y091637D01*
Y091651D01*
X106850D01*
Y092571D01*
X106450D01*
Y092294D01*
X106176D01*
X105734Y092737D01*
Y096511D01*
X105722Y096569D01*
X105720Y096581D01*
X105680Y096640D01*
X104930Y097390D01*
X104935Y097409D01*
X112162D01*
Y062445D01*
D02*
G37*
%LPC*%
G36*
X094130Y075391D02*
X093370D01*
Y074631D01*
X094130D01*
Y075391D01*
D02*
G37*
G36*
X111400Y074444D02*
X111382Y074441D01*
X111145D01*
Y074265D01*
X111074Y074194D01*
X110822D01*
Y074201D01*
X110632Y074391D01*
X110252D01*
X110062Y074201D01*
Y073821D01*
X110252Y073631D01*
X110632D01*
X110822Y073821D01*
Y073827D01*
X111150D01*
X111209Y073839D01*
X111220Y073841D01*
X111280Y073881D01*
X111480Y074081D01*
X111655D01*
Y074441D01*
X111418D01*
X111400Y074444D01*
D02*
G37*
G36*
X106065Y074391D02*
X105685D01*
X105495Y074201D01*
Y073821D01*
X105685Y073631D01*
X106065D01*
X106255Y073821D01*
Y074201D01*
X106065Y074391D01*
D02*
G37*
G36*
X107640D02*
X107260D01*
X107070Y074201D01*
Y073821D01*
X107260Y073631D01*
X107640D01*
X107830Y073821D01*
Y074201D01*
X107640Y074391D01*
D02*
G37*
G36*
X103263Y075391D02*
X102503D01*
Y074631D01*
X103263D01*
Y075391D01*
D02*
G37*
G36*
X106200Y084371D02*
X105800D01*
Y083451D01*
X105878D01*
Y082611D01*
X105878Y082611D01*
X105878D01*
X105887Y082564D01*
X105913Y082524D01*
X106678Y081760D01*
Y081071D01*
X106600D01*
Y080151D01*
X107000D01*
Y081071D01*
X106922D01*
Y081811D01*
X106913Y081858D01*
X106887Y081897D01*
X106122Y082661D01*
Y083451D01*
X106200D01*
Y084371D01*
D02*
G37*
G36*
X108850Y081923D02*
X108782Y081914D01*
X108719Y081888D01*
X108665Y081846D01*
X108623Y081792D01*
X108597Y081729D01*
X108588Y081661D01*
X108597Y081593D01*
X108623Y081530D01*
X108665Y081475D01*
X108719Y081434D01*
X108728Y081430D01*
Y081071D01*
X108650D01*
Y080151D01*
X109050D01*
Y081071D01*
X108972D01*
Y081430D01*
X108981Y081434D01*
X109035Y081475D01*
X109077Y081530D01*
X109103Y081593D01*
X109112Y081661D01*
X109103Y081729D01*
X109077Y081792D01*
X109035Y081846D01*
X108981Y081888D01*
X108918Y081914D01*
X108850Y081923D01*
D02*
G37*
G36*
X106250Y081873D02*
X106182Y081864D01*
X106119Y081838D01*
X106065Y081796D01*
X106023Y081742D01*
X105997Y081679D01*
X105988Y081611D01*
X105997Y081543D01*
X106023Y081480D01*
X106065Y081425D01*
X106119Y081384D01*
X106178Y081359D01*
Y081071D01*
X106100D01*
Y080151D01*
X106500D01*
Y081071D01*
X106422D01*
Y081415D01*
X106435Y081425D01*
X106477Y081480D01*
X106503Y081543D01*
X106512Y081611D01*
X106503Y081679D01*
X106477Y081742D01*
X106435Y081796D01*
X106381Y081838D01*
X106318Y081864D01*
X106250Y081873D01*
D02*
G37*
G36*
X100638Y077391D02*
X100128D01*
Y077031D01*
X100261D01*
Y076555D01*
X100219Y076538D01*
X100165Y076496D01*
X100123Y076442D01*
X100097Y076379D01*
X100088Y076311D01*
X100097Y076243D01*
X100123Y076180D01*
X100165Y076125D01*
X100219Y076084D01*
X100282Y076057D01*
X100350Y076048D01*
X100418Y076057D01*
X100481Y076084D01*
X100535Y076125D01*
X100577Y076180D01*
X100603Y076243D01*
X100612Y076311D01*
X100603Y076379D01*
X100577Y076442D01*
X100535Y076496D01*
X100506Y076519D01*
Y077031D01*
X100638D01*
Y077391D01*
D02*
G37*
G36*
X101772D02*
X101262D01*
Y077031D01*
X101394D01*
Y076520D01*
X101373Y076492D01*
X101347Y076429D01*
X101338Y076361D01*
X101347Y076293D01*
X101373Y076230D01*
X101415Y076175D01*
X101469Y076134D01*
X101532Y076107D01*
X101600Y076098D01*
X101668Y076107D01*
X101731Y076134D01*
X101785Y076175D01*
X101827Y076230D01*
X101853Y076293D01*
X101862Y076361D01*
X101853Y076429D01*
X101827Y076492D01*
X101785Y076546D01*
X101731Y076588D01*
X101668Y076614D01*
X101639Y076618D01*
Y077031D01*
X101772D01*
Y077391D01*
D02*
G37*
G36*
X103073Y074391D02*
X102693D01*
X102503Y074201D01*
Y073821D01*
X102693Y073631D01*
X103073D01*
X103263Y073821D01*
Y074201D01*
X103073Y074391D01*
D02*
G37*
G36*
X110392Y072391D02*
X110252D01*
X110062Y072201D01*
Y072061D01*
X110392D01*
Y072391D01*
D02*
G37*
G36*
X110632D02*
X110492D01*
Y072061D01*
X110822D01*
Y072201D01*
X110632Y072391D01*
D02*
G37*
G36*
X106065D02*
X105925D01*
Y072061D01*
X106255D01*
Y072201D01*
X106065Y072391D01*
D02*
G37*
G36*
X101499D02*
X101359D01*
Y072061D01*
X101689D01*
Y072201D01*
X101499Y072391D01*
D02*
G37*
G36*
X105825D02*
X105685D01*
X105495Y072201D01*
Y072061D01*
X105825D01*
Y072391D01*
D02*
G37*
G36*
X101499Y073391D02*
X101119D01*
X100929Y073201D01*
Y073194D01*
X099850D01*
X099780Y073180D01*
X099760Y073167D01*
X099720Y073140D01*
X099354Y072774D01*
X099314Y072714D01*
X099311Y072703D01*
X099300Y072644D01*
Y071266D01*
X099253D01*
Y070556D01*
X099713D01*
Y071266D01*
X099667D01*
Y072568D01*
X099926Y072827D01*
X100929D01*
Y072821D01*
X101119Y072631D01*
X101499D01*
X101689Y072821D01*
Y073201D01*
X101499Y073391D01*
D02*
G37*
G36*
X098507Y074391D02*
X098127D01*
X097937Y074201D01*
Y073821D01*
X098127Y073631D01*
X098507D01*
X098697Y073821D01*
Y074201D01*
X098507Y074391D01*
D02*
G37*
G36*
X101499D02*
X101119D01*
X100929Y074201D01*
Y073821D01*
X101119Y073631D01*
X101499D01*
X101689Y073821D01*
Y074201D01*
X101499Y074391D01*
D02*
G37*
G36*
X096932D02*
X096552D01*
X096362Y074201D01*
Y073821D01*
X096552Y073631D01*
X096932D01*
X097122Y073821D01*
Y074201D01*
X096932Y074391D01*
D02*
G37*
G36*
X106065Y073391D02*
X105685D01*
X105495Y073201D01*
Y073194D01*
X104550D01*
X104491Y073183D01*
X104480Y073180D01*
X104420Y073140D01*
X103887Y072607D01*
X103847Y072548D01*
X103845Y072536D01*
X103833Y072477D01*
Y071266D01*
X103787D01*
Y070556D01*
X104247D01*
Y071266D01*
X104200D01*
Y072401D01*
X104626Y072827D01*
X105495D01*
Y072821D01*
X105685Y072631D01*
X106065D01*
X106255Y072821D01*
Y073201D01*
X106065Y073391D01*
D02*
G37*
G36*
X110632D02*
X110252D01*
X110062Y073201D01*
Y073194D01*
X108850D01*
X108780Y073180D01*
X108760Y073167D01*
X108720Y073140D01*
X108420Y072840D01*
X108380Y072781D01*
X108378Y072769D01*
X108366Y072711D01*
Y071266D01*
X108320D01*
Y070556D01*
X108780D01*
Y071266D01*
X108734D01*
Y072635D01*
X108926Y072827D01*
X110062D01*
Y072821D01*
X110252Y072631D01*
X110632D01*
X110822Y072821D01*
Y073201D01*
X110632Y073391D01*
D02*
G37*
G36*
X108200Y084371D02*
X107800D01*
Y083451D01*
X107878D01*
Y082611D01*
X107878Y082611D01*
X107878D01*
X107887Y082564D01*
X107913Y082524D01*
X108213Y082224D01*
X108253Y082198D01*
X108300Y082188D01*
X108849D01*
X109228Y081810D01*
Y081071D01*
X109150D01*
Y080151D01*
X109550D01*
Y081071D01*
X109472D01*
Y081861D01*
X109463Y081908D01*
X109437Y081947D01*
X108987Y082397D01*
X108947Y082424D01*
X108900Y082433D01*
X108351D01*
X108122Y082661D01*
Y083451D01*
X108200D01*
Y084371D01*
D02*
G37*
G36*
X108255Y087441D02*
X107745D01*
Y087081D01*
X107878D01*
Y086621D01*
X107800D01*
Y085701D01*
X108200D01*
Y086621D01*
X108122D01*
Y087081D01*
X108255D01*
Y087441D01*
D02*
G37*
G36*
X083800Y086811D02*
X083379D01*
X083388Y086737D01*
X083436Y086622D01*
X083512Y086523D01*
X083611Y086447D01*
X083726Y086399D01*
X083800Y086390D01*
Y086811D01*
D02*
G37*
G36*
X107255Y087441D02*
X106745D01*
Y087081D01*
X106878D01*
Y086621D01*
X106800D01*
Y085701D01*
X107200D01*
Y086621D01*
X107122D01*
Y087081D01*
X107255D01*
Y087441D01*
D02*
G37*
G36*
X102955Y085391D02*
X102750D01*
Y085261D01*
X102955D01*
Y085391D01*
D02*
G37*
G36*
X106255Y087441D02*
X105745D01*
Y087081D01*
X105878D01*
Y086621D01*
X105800D01*
Y085701D01*
X106200D01*
Y086621D01*
X106122D01*
Y087081D01*
X106255D01*
Y087441D01*
D02*
G37*
G36*
X084321Y086811D02*
X083900D01*
Y086390D01*
X083974Y086399D01*
X084089Y086447D01*
X084188Y086523D01*
X084264Y086622D01*
X084312Y086737D01*
X084321Y086811D01*
D02*
G37*
G36*
X104555Y086661D02*
X104350D01*
Y086531D01*
X104555D01*
Y086661D01*
D02*
G37*
G36*
X103450Y086891D02*
X103245D01*
Y086761D01*
X103450D01*
Y086891D01*
D02*
G37*
G36*
X104250Y086661D02*
X104045D01*
Y086531D01*
X104250D01*
Y086661D01*
D02*
G37*
G36*
X103450D02*
X103245D01*
Y086531D01*
X103450D01*
Y086661D01*
D02*
G37*
G36*
X103755D02*
X103550D01*
Y086531D01*
X103755D01*
Y086661D01*
D02*
G37*
G36*
X102650Y085391D02*
X102445D01*
Y085261D01*
X102650D01*
Y085391D01*
D02*
G37*
G36*
X093605Y084841D02*
X092895D01*
Y084733D01*
X092805D01*
Y084791D01*
X092295D01*
Y084431D01*
X092805D01*
Y084488D01*
X092895D01*
Y084381D01*
X093605D01*
Y084841D01*
D02*
G37*
G36*
X103755Y086291D02*
X103245D01*
Y085931D01*
X103378D01*
Y085816D01*
X103270D01*
Y085135D01*
X103247Y085079D01*
X103238Y085011D01*
X103247Y084943D01*
X103273Y084880D01*
X103315Y084825D01*
X103369Y084784D01*
X103432Y084757D01*
X103500Y084748D01*
X103568Y084757D01*
X103631Y084784D01*
X103685Y084825D01*
X103727Y084880D01*
X103753Y084943D01*
X103762Y085011D01*
X103753Y085079D01*
X103730Y085135D01*
Y085816D01*
X103622D01*
Y085931D01*
X103755D01*
Y086291D01*
D02*
G37*
G36*
X094100Y084093D02*
X094027Y084083D01*
X093959Y084055D01*
X093900Y084010D01*
X093855Y083952D01*
X093848Y083933D01*
X093605D01*
Y084041D01*
X092895D01*
Y083581D01*
X093605D01*
Y083688D01*
X093848D01*
X093855Y083670D01*
X093900Y083611D01*
X093959Y083566D01*
X094027Y083538D01*
X094100Y083528D01*
X094173Y083538D01*
X094241Y083566D01*
X094300Y083611D01*
X094345Y083670D01*
X094352Y083688D01*
X104019D01*
X104023Y083680D01*
X104065Y083625D01*
X104119Y083584D01*
X104182Y083557D01*
X104250Y083548D01*
X104318Y083557D01*
X104381Y083584D01*
X104435Y083625D01*
X104477Y083680D01*
X104503Y083743D01*
X104512Y083811D01*
X104503Y083879D01*
X104477Y083942D01*
X104435Y083996D01*
X104381Y084038D01*
X104318Y084064D01*
X104250Y084073D01*
X104182Y084064D01*
X104119Y084038D01*
X104065Y083996D01*
X104023Y083942D01*
X104019Y083933D01*
X094352D01*
X094345Y083952D01*
X094300Y084010D01*
X094241Y084055D01*
X094173Y084083D01*
X094100Y084093D01*
D02*
G37*
G36*
X109200Y084371D02*
X108800D01*
Y083451D01*
X108878D01*
Y083091D01*
X108869Y083088D01*
X108815Y083046D01*
X108773Y082992D01*
X108747Y082929D01*
X108738Y082861D01*
X108747Y082793D01*
X108773Y082730D01*
X108815Y082675D01*
X108869Y082634D01*
X108932Y082607D01*
X109000Y082598D01*
X109068Y082607D01*
X109131Y082634D01*
X109185Y082675D01*
X109227Y082730D01*
X109253Y082793D01*
X109262Y082861D01*
X109253Y082929D01*
X109227Y082992D01*
X109185Y083046D01*
X109131Y083088D01*
X109122Y083091D01*
Y083451D01*
X109200D01*
Y084371D01*
D02*
G37*
G36*
X107200D02*
X106800D01*
Y083451D01*
X106878D01*
Y083011D01*
X106827Y082960D01*
X106818Y082964D01*
X106750Y082973D01*
X106682Y082964D01*
X106619Y082938D01*
X106565Y082896D01*
X106523Y082842D01*
X106497Y082779D01*
X106488Y082711D01*
X106497Y082643D01*
X106523Y082580D01*
X106565Y082525D01*
X106619Y082484D01*
X106682Y082457D01*
X106750Y082448D01*
X106818Y082457D01*
X106881Y082484D01*
X106935Y082525D01*
X106977Y082580D01*
X107003Y082643D01*
X107012Y082711D01*
X107003Y082779D01*
X107000Y082787D01*
X107087Y082874D01*
X107113Y082914D01*
X107113Y082914D01*
X107113Y082914D01*
X107122Y082961D01*
Y083451D01*
X107200D01*
Y084371D01*
D02*
G37*
G36*
X104555Y086291D02*
X104045D01*
Y085931D01*
X104178D01*
Y085816D01*
X104070D01*
Y085135D01*
X104047Y085079D01*
X104038Y085011D01*
X104047Y084943D01*
X104073Y084880D01*
X104115Y084825D01*
X104169Y084784D01*
X104232Y084757D01*
X104300Y084748D01*
X104368Y084757D01*
X104431Y084784D01*
X104485Y084825D01*
X104527Y084880D01*
X104553Y084943D01*
X104562Y085011D01*
X104553Y085079D01*
X104530Y085135D01*
Y085816D01*
X104422D01*
Y085931D01*
X104555D01*
Y086291D01*
D02*
G37*
G36*
X102955Y085161D02*
X102750D01*
Y085031D01*
X102955D01*
Y085161D01*
D02*
G37*
G36*
X099105Y085391D02*
X098900D01*
Y085261D01*
X099105D01*
Y085391D01*
D02*
G37*
G36*
X102650Y085161D02*
X102445D01*
Y085031D01*
X102650D01*
Y085161D01*
D02*
G37*
G36*
X098555Y085391D02*
Y085391D01*
X098350D01*
Y085211D01*
Y085031D01*
X098555D01*
Y085031D01*
X098555D01*
X098555Y085031D01*
X098595D01*
Y085031D01*
X098800D01*
Y085211D01*
Y085391D01*
X098595D01*
D01*
D01*
X098595Y085391D01*
X098555D01*
D02*
G37*
G36*
X099105Y085161D02*
X098900D01*
Y085031D01*
X099105D01*
Y085161D01*
D02*
G37*
G36*
X101259Y072391D02*
X101119D01*
X100929Y072201D01*
Y072061D01*
X101259D01*
Y072391D01*
D02*
G37*
G36*
X091761Y069997D02*
Y069476D01*
X092281D01*
X092268Y069575D01*
X092210Y069715D01*
X092119Y069834D01*
X091999Y069926D01*
X091860Y069983D01*
X091761Y069997D01*
D02*
G37*
G36*
X095700Y070861D02*
X095520D01*
Y070556D01*
X095700D01*
Y070861D01*
D02*
G37*
G36*
X091661Y069997D02*
X091561Y069983D01*
X091422Y069926D01*
X091303Y069834D01*
X091211Y069715D01*
X091153Y069575D01*
X091140Y069476D01*
X091661D01*
Y069997D01*
D02*
G37*
G36*
Y069376D02*
X091140D01*
X091153Y069277D01*
X091211Y069138D01*
X091303Y069018D01*
X091422Y068926D01*
X091561Y068869D01*
X091661Y068856D01*
Y069376D01*
D02*
G37*
G36*
X092281D02*
X091761D01*
Y068856D01*
X091860Y068869D01*
X091999Y068926D01*
X092119Y069018D01*
X092210Y069138D01*
X092268Y069277D01*
X092281Y069376D01*
D02*
G37*
G36*
X095980Y070861D02*
X095800D01*
Y070556D01*
X095980D01*
Y070861D01*
D02*
G37*
G36*
X105047D02*
X104867D01*
Y070556D01*
X105047D01*
Y070861D01*
D02*
G37*
G36*
X109300D02*
X109120D01*
Y070556D01*
X109300D01*
Y070861D01*
D02*
G37*
G36*
X104767D02*
X104587D01*
Y070556D01*
X104767D01*
Y070861D01*
D02*
G37*
G36*
X100233D02*
X100053D01*
Y070556D01*
X100233D01*
Y070861D01*
D02*
G37*
G36*
X100513D02*
X100333D01*
Y070556D01*
X100513D01*
Y070861D01*
D02*
G37*
G36*
X090057Y070003D02*
X089908Y069983D01*
X089769Y069926D01*
X089649Y069834D01*
X089557Y069715D01*
X089500Y069575D01*
X089480Y069426D01*
X089500Y069277D01*
X089557Y069138D01*
X089649Y069018D01*
X089769Y068926D01*
X089908Y068869D01*
X090057Y068849D01*
X090206Y068869D01*
X090346Y068926D01*
X090465Y069018D01*
X090557Y069138D01*
X090614Y069277D01*
X090634Y069426D01*
X090614Y069575D01*
X090557Y069715D01*
X090465Y069834D01*
X090346Y069926D01*
X090206Y069983D01*
X090057Y070003D01*
D02*
G37*
G36*
X106600Y064289D02*
X106502Y064276D01*
X106411Y064239D01*
X106332Y064178D01*
X106272Y064100D01*
X106234Y064009D01*
X106221Y063911D01*
X106234Y063813D01*
X106272Y063721D01*
X106332Y063643D01*
X106411Y063583D01*
X106502Y063545D01*
X106600Y063532D01*
X106698Y063545D01*
X106789Y063583D01*
X106868Y063643D01*
X106928Y063721D01*
X106966Y063813D01*
X106979Y063911D01*
X106966Y064009D01*
X106928Y064100D01*
X106868Y064178D01*
X106789Y064239D01*
X106698Y064276D01*
X106600Y064289D01*
D02*
G37*
G36*
X107600D02*
X107502Y064276D01*
X107411Y064239D01*
X107332Y064178D01*
X107272Y064100D01*
X107234Y064009D01*
X107221Y063911D01*
X107234Y063813D01*
X107272Y063721D01*
X107332Y063643D01*
X107411Y063583D01*
X107502Y063545D01*
X107600Y063532D01*
X107698Y063545D01*
X107789Y063583D01*
X107868Y063643D01*
X107928Y063721D01*
X107966Y063813D01*
X107979Y063911D01*
X107966Y064009D01*
X107928Y064100D01*
X107868Y064178D01*
X107789Y064239D01*
X107698Y064276D01*
X107600Y064289D01*
D02*
G37*
G36*
X105600D02*
X105502Y064276D01*
X105411Y064239D01*
X105332Y064178D01*
X105272Y064100D01*
X105234Y064009D01*
X105221Y063911D01*
X105234Y063813D01*
X105272Y063721D01*
X105332Y063643D01*
X105411Y063583D01*
X105502Y063545D01*
X105600Y063532D01*
X105698Y063545D01*
X105789Y063583D01*
X105868Y063643D01*
X105928Y063721D01*
X105966Y063813D01*
X105979Y063911D01*
X105966Y064009D01*
X105928Y064100D01*
X105868Y064178D01*
X105789Y064239D01*
X105698Y064276D01*
X105600Y064289D01*
D02*
G37*
G36*
X082475Y064853D02*
X082308Y064840D01*
X082145Y064801D01*
X081990Y064737D01*
X081847Y064649D01*
X081720Y064540D01*
X081611Y064413D01*
X081524Y064270D01*
X081460Y064115D01*
X081420Y063953D01*
X081407Y063786D01*
X081420Y063619D01*
X081460Y063456D01*
X081524Y063301D01*
X081611Y063158D01*
X081720Y063031D01*
X081847Y062922D01*
X081990Y062834D01*
X082145Y062770D01*
X082308Y062731D01*
X082475Y062718D01*
X082642Y062731D01*
X082805Y062770D01*
X082959Y062834D01*
X083102Y062922D01*
X083230Y063031D01*
X083338Y063158D01*
X083426Y063301D01*
X083490Y063456D01*
X083529Y063619D01*
X083542Y063786D01*
X083529Y063953D01*
X083490Y064115D01*
X083426Y064270D01*
X083338Y064413D01*
X083230Y064540D01*
X083102Y064649D01*
X082959Y064737D01*
X082805Y064801D01*
X082642Y064840D01*
X082475Y064853D01*
D02*
G37*
G36*
X110821D02*
X110654Y064840D01*
X110491Y064801D01*
X110337Y064737D01*
X110194Y064649D01*
X110066Y064540D01*
X109958Y064413D01*
X109870Y064270D01*
X109806Y064115D01*
X109767Y063953D01*
X109754Y063786D01*
X109767Y063619D01*
X109806Y063456D01*
X109870Y063301D01*
X109958Y063158D01*
X110066Y063031D01*
X110194Y062922D01*
X110337Y062834D01*
X110491Y062770D01*
X110654Y062731D01*
X110821Y062718D01*
X110988Y062731D01*
X111151Y062770D01*
X111306Y062834D01*
X111449Y062922D01*
X111576Y063031D01*
X111685Y063158D01*
X111772Y063301D01*
X111837Y063456D01*
X111876Y063619D01*
X111889Y063786D01*
X111876Y063953D01*
X111837Y064115D01*
X111772Y064270D01*
X111685Y064413D01*
X111576Y064540D01*
X111449Y064649D01*
X111306Y064737D01*
X111151Y064801D01*
X110988Y064840D01*
X110821Y064853D01*
D02*
G37*
G36*
X104975Y064286D02*
X104225D01*
Y063535D01*
X104975D01*
Y064286D01*
D02*
G37*
G36*
X090057Y067838D02*
X089908Y067818D01*
X089769Y067760D01*
X089649Y067669D01*
X089557Y067549D01*
X089500Y067410D01*
X089480Y067261D01*
X089500Y067111D01*
X089557Y066972D01*
X089649Y066853D01*
X089769Y066761D01*
X089908Y066703D01*
X090057Y066684D01*
X090206Y066703D01*
X090346Y066761D01*
X090465Y066853D01*
X090557Y066972D01*
X090614Y067111D01*
X090634Y067261D01*
X090614Y067410D01*
X090557Y067549D01*
X090465Y067669D01*
X090346Y067760D01*
X090206Y067818D01*
X090057Y067838D01*
D02*
G37*
G36*
X088950Y072792D02*
X088950Y072792D01*
X083600D01*
X083569Y072786D01*
X083542Y072768D01*
X083525Y072742D01*
X083518Y072711D01*
Y071411D01*
X083518Y071411D01*
X083525Y071379D01*
X083542Y071353D01*
X083992Y070903D01*
X084019Y070885D01*
X084050Y070879D01*
X084050Y070879D01*
X085818D01*
Y068761D01*
X085825Y068729D01*
X085842Y068703D01*
X085869Y068685D01*
X085900Y068679D01*
X089050D01*
X089081Y068685D01*
X089108Y068703D01*
X089125Y068729D01*
X089132Y068761D01*
Y072611D01*
X089125Y072642D01*
X089118Y072653D01*
X089108Y072668D01*
X089108Y072668D01*
X089008Y072768D01*
X088981Y072786D01*
X088950Y072792D01*
D02*
G37*
G36*
X107640Y073391D02*
X107260D01*
X107070Y073201D01*
Y072821D01*
X107260Y072631D01*
X107640D01*
X107648Y072639D01*
X107928Y072360D01*
Y067761D01*
X105949Y065783D01*
X103931D01*
X103927Y065792D01*
X103885Y065846D01*
X103831Y065888D01*
X103768Y065914D01*
X103700Y065923D01*
X103632Y065914D01*
X103569Y065888D01*
X103515Y065846D01*
X103473Y065792D01*
X103447Y065729D01*
X103438Y065661D01*
X103447Y065593D01*
X103473Y065530D01*
X103515Y065475D01*
X103569Y065434D01*
X103632Y065407D01*
X103700Y065398D01*
X103768Y065407D01*
X103831Y065434D01*
X103885Y065475D01*
X103927Y065530D01*
X103931Y065538D01*
X106000D01*
X106047Y065548D01*
X106087Y065574D01*
X106087Y065574D01*
X106087Y065574D01*
X108137Y067624D01*
X108163Y067664D01*
X108172Y067711D01*
X108172Y067711D01*
X108172Y067711D01*
Y067711D01*
Y072411D01*
X108163Y072458D01*
X108137Y072497D01*
X107822Y072812D01*
X107830Y072821D01*
Y073201D01*
X107640Y073391D01*
D02*
G37*
G36*
X091711Y067838D02*
X091561Y067818D01*
X091422Y067760D01*
X091303Y067669D01*
X091211Y067549D01*
X091153Y067410D01*
X091134Y067261D01*
X091153Y067111D01*
X091211Y066972D01*
X091303Y066853D01*
X091422Y066761D01*
X091527Y066717D01*
Y065847D01*
X090724Y065044D01*
X088137D01*
X088135Y065046D01*
X088081Y065088D01*
X088018Y065114D01*
X087950Y065123D01*
X087882Y065114D01*
X087819Y065088D01*
X087765Y065046D01*
X087723Y064992D01*
X087697Y064929D01*
X087688Y064861D01*
X087697Y064793D01*
X087723Y064730D01*
X087765Y064675D01*
X087819Y064634D01*
X087882Y064607D01*
X087950Y064598D01*
X088018Y064607D01*
X088081Y064634D01*
X088135Y064675D01*
X088137Y064677D01*
X090800D01*
X090859Y064689D01*
X090870Y064691D01*
X090930Y064731D01*
X091840Y065642D01*
X091880Y065701D01*
X091882Y065713D01*
X091894Y065771D01*
Y066717D01*
X091999Y066761D01*
X092119Y066853D01*
X092210Y066972D01*
X092268Y067111D01*
X092288Y067261D01*
X092268Y067410D01*
X092210Y067549D01*
X092119Y067669D01*
X091999Y067760D01*
X091860Y067818D01*
X091711Y067838D01*
D02*
G37*
G36*
X084250Y068893D02*
X083350D01*
X083345Y068892D01*
X083150D01*
X083119Y068886D01*
X083092Y068868D01*
X083075Y068842D01*
X083068Y068811D01*
Y066411D01*
X083075Y066379D01*
X083092Y066353D01*
X083092Y066353D01*
X083642Y065803D01*
X083655Y065794D01*
X083668Y065786D01*
X083668Y065786D01*
X083669Y065785D01*
X083684Y065782D01*
X083699Y065779D01*
X089049Y065729D01*
X089050Y065729D01*
X089050Y065729D01*
X089065Y065732D01*
X089081Y065735D01*
X089081Y065735D01*
X089081Y065735D01*
X089094Y065744D01*
X089107Y065753D01*
X089107Y065753D01*
X089108Y065753D01*
X089116Y065766D01*
X089125Y065779D01*
X089125Y065779D01*
X089125Y065779D01*
X089128Y065795D01*
X089132Y065810D01*
X089131Y065810D01*
X089132Y065811D01*
Y068011D01*
X089125Y068042D01*
X089108Y068068D01*
X089081Y068086D01*
X089050Y068092D01*
X085082D01*
Y068661D01*
X085082Y068661D01*
X085075Y068692D01*
X085058Y068718D01*
X084908Y068868D01*
X084881Y068886D01*
X084850Y068892D01*
X084850Y068892D01*
X084255D01*
X084250Y068893D01*
D02*
G37*
G36*
X109580Y070861D02*
X109400D01*
Y070556D01*
X109580D01*
Y070861D01*
D02*
G37*
G36*
X103073Y072391D02*
X102693D01*
X102503Y072201D01*
Y071821D01*
X102693Y071631D01*
X103073D01*
X103263Y071821D01*
Y072201D01*
X103073Y072391D01*
D02*
G37*
G36*
X105825Y071961D02*
X105495D01*
Y071821D01*
X105685Y071631D01*
X105825D01*
Y071961D01*
D02*
G37*
G36*
X101689D02*
X101359D01*
Y071631D01*
X101499D01*
X101689Y071821D01*
Y071961D01*
D02*
G37*
G36*
X098507Y072391D02*
X098127D01*
X097937Y072201D01*
Y071821D01*
X098127Y071631D01*
X098507D01*
X098697Y071821D01*
Y072201D01*
X098507Y072391D01*
D02*
G37*
G36*
X101259Y071961D02*
X100929D01*
Y071821D01*
X101119Y071631D01*
X101259D01*
Y071961D01*
D02*
G37*
G36*
X106255D02*
X105925D01*
Y071631D01*
X106065D01*
X106255Y071821D01*
Y071961D01*
D02*
G37*
G36*
X096692Y072391D02*
X096552D01*
X096362Y072201D01*
Y072061D01*
X096692D01*
Y072391D01*
D02*
G37*
G36*
X096932D02*
X096792D01*
Y072061D01*
X097122D01*
Y072201D01*
X096932Y072391D01*
D02*
G37*
G36*
X110822Y071961D02*
X110492D01*
Y071631D01*
X110632D01*
X110822Y071821D01*
Y071961D01*
D02*
G37*
G36*
X107640Y072391D02*
X107260D01*
X107070Y072201D01*
Y071821D01*
X107260Y071631D01*
X107640D01*
X107830Y071821D01*
Y072201D01*
X107640Y072391D01*
D02*
G37*
G36*
X110392Y071961D02*
X110062D01*
Y071821D01*
X110252Y071631D01*
X110392D01*
Y071961D01*
D02*
G37*
G36*
X097122D02*
X096792D01*
Y071631D01*
X096932D01*
X097122Y071821D01*
Y071961D01*
D02*
G37*
G36*
X100233Y071266D02*
X100053D01*
Y070961D01*
X100233D01*
Y071266D01*
D02*
G37*
G36*
X100513D02*
X100333D01*
Y070961D01*
X100513D01*
Y071266D01*
D02*
G37*
G36*
X095980D02*
X095800D01*
Y070961D01*
X095980D01*
Y071266D01*
D02*
G37*
G36*
X082387Y072733D02*
X081913D01*
Y071589D01*
X081967D01*
Y071166D01*
X081920D01*
Y070656D01*
X081920Y070656D01*
X081920Y070616D01*
X081920D01*
Y070106D01*
X082280D01*
Y070616D01*
D01*
Y070616D01*
X082280Y070616D01*
Y070656D01*
X082280D01*
Y071166D01*
X082233D01*
Y071589D01*
X082387D01*
Y072733D01*
D02*
G37*
G36*
X095700Y071266D02*
X095520D01*
Y070961D01*
X095700D01*
Y071266D01*
D02*
G37*
G36*
X104767D02*
X104587D01*
Y070961D01*
X104767D01*
Y071266D01*
D02*
G37*
G36*
X093940Y072391D02*
X093560D01*
X093370Y072201D01*
Y071821D01*
X093560Y071631D01*
X093940D01*
X094130Y071821D01*
Y072201D01*
X093940Y072391D01*
D02*
G37*
G36*
X096692Y071961D02*
X096362D01*
Y071821D01*
X096552Y071631D01*
X096692D01*
Y071961D01*
D02*
G37*
G36*
X109580Y071266D02*
X109400D01*
Y070961D01*
X109580D01*
Y071266D01*
D02*
G37*
G36*
X105047D02*
X104867D01*
Y070961D01*
X105047D01*
Y071266D01*
D02*
G37*
G36*
X109300D02*
X109120D01*
Y070961D01*
X109300D01*
Y071266D01*
D02*
G37*
G36*
X098050Y092781D02*
X097845D01*
Y092651D01*
X098050D01*
Y092781D01*
D02*
G37*
G36*
X098355D02*
X098150D01*
Y092651D01*
X098355D01*
Y092781D01*
D02*
G37*
G36*
X093650Y092911D02*
X093345D01*
Y092731D01*
X093650D01*
Y092911D01*
D02*
G37*
G36*
X095700Y092721D02*
X095550D01*
Y092311D01*
X095700D01*
Y092721D01*
D02*
G37*
G36*
X095950D02*
X095800D01*
Y092311D01*
X095950D01*
Y092721D01*
D02*
G37*
G36*
X096200D02*
X096050D01*
Y092311D01*
X096200D01*
Y092721D01*
D02*
G37*
G36*
X096650Y093061D02*
X096445D01*
Y092931D01*
X096650D01*
Y093061D01*
D02*
G37*
G36*
X096955D02*
X096750D01*
Y092931D01*
X096955D01*
Y093061D01*
D02*
G37*
G36*
X093650Y093191D02*
X093345D01*
Y093011D01*
X093650D01*
Y093191D01*
D02*
G37*
G36*
X094055Y092911D02*
X093750D01*
Y092731D01*
X094055D01*
Y092911D01*
D02*
G37*
G36*
X098050Y093011D02*
X097845D01*
Y092881D01*
X098050D01*
Y093011D01*
D02*
G37*
G36*
X098355D02*
X098150D01*
Y092881D01*
X098355D01*
Y093011D01*
D02*
G37*
G36*
X095450Y092721D02*
X095300D01*
Y092311D01*
X095450D01*
Y092721D01*
D02*
G37*
G36*
Y092211D02*
X095300D01*
Y091801D01*
X095450D01*
Y092211D01*
D02*
G37*
G36*
X095700D02*
X095550D01*
Y091801D01*
X095700D01*
Y092211D01*
D02*
G37*
G36*
X095950D02*
X095800D01*
Y091801D01*
X095950D01*
Y092211D01*
D02*
G37*
G36*
X094700D02*
X094550D01*
Y091801D01*
X094700D01*
Y092211D01*
D02*
G37*
G36*
X094950D02*
X094800D01*
Y091801D01*
X094950D01*
Y092211D01*
D02*
G37*
G36*
X095200D02*
X095050D01*
Y091801D01*
X095200D01*
Y092211D01*
D02*
G37*
G36*
X094700Y092721D02*
X094550D01*
Y092311D01*
X094700D01*
Y092721D01*
D02*
G37*
G36*
X094950D02*
X094800D01*
Y092311D01*
X094950D01*
Y092721D01*
D02*
G37*
G36*
X095200D02*
X095050D01*
Y092311D01*
X095200D01*
Y092721D01*
D02*
G37*
G36*
X096200Y092211D02*
X096050D01*
Y091801D01*
X096200D01*
Y092211D01*
D02*
G37*
G36*
X108100Y092571D02*
X107950D01*
Y092161D01*
X108100D01*
Y092571D01*
D02*
G37*
G36*
X094450Y092721D02*
X094300D01*
Y092311D01*
X094450D01*
Y092721D01*
D02*
G37*
G36*
X094055Y093191D02*
X093750D01*
Y093011D01*
X094055D01*
Y093191D01*
D02*
G37*
G36*
X094155Y095811D02*
X093850D01*
Y095631D01*
X094155D01*
Y095811D01*
D02*
G37*
G36*
X095430Y096416D02*
X095070D01*
Y095906D01*
X095070Y095906D01*
X095070Y095866D01*
X095070D01*
Y095356D01*
X095284D01*
X095311Y095314D01*
X095297Y095279D01*
X095288Y095211D01*
X095297Y095143D01*
X095323Y095080D01*
X095365Y095025D01*
X095374Y095018D01*
X095358Y094971D01*
X095300D01*
Y094279D01*
X095254Y094260D01*
X095200Y094314D01*
Y094971D01*
X094800D01*
Y094051D01*
X095117D01*
X095508Y093660D01*
X095488Y093614D01*
X095256D01*
X094980Y093890D01*
X094920Y093930D01*
X094909Y093933D01*
X094850Y093944D01*
X094697D01*
X094684Y093961D01*
Y094051D01*
X094700D01*
Y094971D01*
X094700D01*
X094700Y095001D01*
X094780Y095081D01*
X094820Y095140D01*
X094822Y095152D01*
X094834Y095211D01*
Y095611D01*
Y096161D01*
X094830Y096178D01*
Y096416D01*
X094470D01*
Y096178D01*
X094466Y096161D01*
Y095611D01*
Y095287D01*
X094370Y095190D01*
X094330Y095131D01*
X094328Y095119D01*
X094316Y095061D01*
Y094971D01*
X094300D01*
Y094051D01*
X094300D01*
X094300Y094020D01*
X094224Y093944D01*
X094055D01*
Y093991D01*
X093730D01*
X093375Y094346D01*
X093315Y094385D01*
X093303Y094388D01*
X093245Y094399D01*
X091425D01*
Y094493D01*
X091068D01*
X091050Y094495D01*
X091032Y094493D01*
X090675D01*
Y092758D01*
X090866D01*
Y091585D01*
X090324D01*
Y090637D01*
X090866D01*
Y089207D01*
X090828Y089191D01*
X090759Y089138D01*
X090706Y089069D01*
X090673Y088989D01*
X090662Y088903D01*
Y088419D01*
X090673Y088332D01*
X090706Y088252D01*
X090759Y088183D01*
X090828Y088130D01*
X090838Y088126D01*
X090865Y088086D01*
X091363Y087588D01*
X091344Y087542D01*
X089050D01*
X089050Y087542D01*
X089019Y087536D01*
X088992Y087518D01*
X088842Y087368D01*
X088825Y087342D01*
X088818Y087311D01*
X088818Y087311D01*
Y086242D01*
X084131D01*
X084089Y086274D01*
X083974Y086322D01*
X083850Y086339D01*
X083726Y086322D01*
X083611Y086274D01*
X083569Y086242D01*
X081700D01*
X081669Y086236D01*
X081642Y086218D01*
X081625Y086192D01*
X081618Y086161D01*
Y085561D01*
X081625Y085529D01*
X081642Y085503D01*
X081669Y085485D01*
X081700Y085479D01*
X083569D01*
X083611Y085447D01*
X083726Y085399D01*
X083821Y085387D01*
X083818Y085337D01*
X083653D01*
X083581Y085327D01*
X083558Y085318D01*
X081749Y085292D01*
X081737Y085290D01*
X081725Y085288D01*
X081721Y085286D01*
X081718Y085286D01*
X081708Y085279D01*
X081697Y085273D01*
X081647Y085230D01*
X081645Y085227D01*
X081642Y085226D01*
X081635Y085215D01*
X081627Y085205D01*
X081626Y085202D01*
X081625Y085199D01*
X081622Y085186D01*
X081619Y085174D01*
X081619Y085171D01*
X081618Y085168D01*
Y073711D01*
X081625Y073679D01*
X081632Y073669D01*
X081642Y073653D01*
X081642Y073653D01*
X082392Y072903D01*
X082419Y072885D01*
X082450Y072879D01*
X082450Y072879D01*
X082578D01*
Y071166D01*
X082520D01*
Y070686D01*
X082519Y070686D01*
X082492Y070668D01*
X082475Y070642D01*
X082468Y070611D01*
Y069911D01*
X082475Y069879D01*
X082492Y069853D01*
X082519Y069835D01*
X082550Y069829D01*
X085650D01*
X085681Y069835D01*
X085708Y069853D01*
X085725Y069879D01*
X085732Y069911D01*
Y070611D01*
X085725Y070642D01*
X085708Y070668D01*
X085681Y070686D01*
X085650Y070692D01*
X084255D01*
X084250Y070693D01*
X083350D01*
X083345Y070692D01*
X082880D01*
Y071166D01*
X082822D01*
Y072879D01*
X090845D01*
Y072781D01*
X091128D01*
Y071811D01*
X091137Y071764D01*
X091163Y071724D01*
X091200Y071687D01*
X091197Y071679D01*
X091188Y071611D01*
X091197Y071543D01*
X091223Y071480D01*
X091265Y071425D01*
X091319Y071384D01*
X091382Y071357D01*
X091450Y071348D01*
X091518Y071357D01*
X091581Y071384D01*
X091635Y071425D01*
X091677Y071480D01*
X091703Y071543D01*
X091712Y071611D01*
X091703Y071679D01*
X091677Y071742D01*
X091635Y071796D01*
X091581Y071838D01*
X091518Y071864D01*
X091450Y071873D01*
X091410Y071868D01*
X091372Y071901D01*
Y072781D01*
X091655D01*
Y072880D01*
X091681Y072885D01*
X091708Y072903D01*
X091725Y072929D01*
X091732Y072961D01*
Y073261D01*
X091725Y073292D01*
X091708Y073318D01*
X091681Y073336D01*
X091650Y073342D01*
X090053D01*
X090038Y073390D01*
X090058Y073403D01*
X090075Y073429D01*
X090082Y073461D01*
Y077461D01*
X090075Y077492D01*
X090058Y077518D01*
X090031Y077536D01*
X090000Y077542D01*
X088605D01*
X088605Y077582D01*
X088605D01*
Y077594D01*
X088641Y077629D01*
X090166D01*
X090368Y077427D01*
Y074761D01*
X090370Y074754D01*
X090370Y074747D01*
X090373Y074739D01*
X090375Y074729D01*
X090378Y074724D01*
X090381Y074718D01*
X090387Y074711D01*
X090392Y074703D01*
X090398Y074699D01*
X090403Y074694D01*
X090753Y074444D01*
X090761Y074441D01*
X090769Y074435D01*
X090775Y074434D01*
X090782Y074431D01*
X090791Y074431D01*
X090800Y074429D01*
X092350D01*
X092381Y074435D01*
X092408Y074453D01*
X092425Y074479D01*
X092432Y074511D01*
Y076429D01*
X094500D01*
X094531Y076435D01*
X094558Y076453D01*
X094575Y076479D01*
X094582Y076511D01*
Y078011D01*
X094582Y078011D01*
X094575Y078042D01*
X094558Y078068D01*
X094408Y078218D01*
X094381Y078236D01*
X094350Y078242D01*
X094350Y078242D01*
X088703D01*
X088688Y078290D01*
X088708Y078303D01*
X088725Y078329D01*
X088732Y078361D01*
Y078861D01*
X088725Y078892D01*
X088708Y078918D01*
X088681Y078936D01*
X088650Y078942D01*
Y078944D01*
X088685Y078979D01*
X093650D01*
X093681Y078985D01*
X093708Y079003D01*
X093725Y079029D01*
X093732Y079061D01*
Y079127D01*
X094174D01*
X095320Y077981D01*
Y077581D01*
X096080D01*
Y078341D01*
X096059D01*
X096040Y078387D01*
X096310Y078656D01*
X096350Y078716D01*
X096364Y078786D01*
Y079315D01*
X096474Y079425D01*
X096520Y079406D01*
Y078781D01*
X096716D01*
Y078341D01*
X096520D01*
Y077581D01*
X096716D01*
Y076987D01*
X096024Y076294D01*
X093350D01*
X093291Y076283D01*
X093280Y076280D01*
X093220Y076240D01*
X092770Y075790D01*
X092730Y075731D01*
X092728Y075719D01*
X092716Y075661D01*
Y065811D01*
X092728Y065752D01*
X092730Y065740D01*
X092770Y065681D01*
X094670Y063781D01*
X094730Y063741D01*
X094741Y063739D01*
X094800Y063727D01*
X095125D01*
Y063535D01*
X095367D01*
X095370Y063531D01*
X095870Y063031D01*
X095930Y062991D01*
X095941Y062989D01*
X096000Y062977D01*
X099300D01*
X099359Y062989D01*
X099370Y062991D01*
X099430Y063031D01*
X099934Y063535D01*
X100425D01*
Y064286D01*
X099675D01*
Y063795D01*
X099224Y063344D01*
X098172D01*
X098153Y063390D01*
X098335Y063573D01*
X098402Y063545D01*
X098500Y063532D01*
X098598Y063545D01*
X098689Y063583D01*
X098768Y063643D01*
X098828Y063721D01*
X098866Y063813D01*
X098879Y063911D01*
X098866Y064009D01*
X098828Y064100D01*
X098768Y064178D01*
X098689Y064239D01*
X098622Y064266D01*
Y066461D01*
X098613Y066508D01*
X098587Y066547D01*
X098437Y066697D01*
X098397Y066724D01*
X098350Y066733D01*
X098080D01*
Y066866D01*
X098022D01*
Y067060D01*
X098301Y067338D01*
X101049D01*
X101128Y067260D01*
Y066866D01*
X101070D01*
Y066356D01*
X101128D01*
Y065461D01*
X101128Y065461D01*
X101128D01*
X101137Y065414D01*
X101163Y065374D01*
X101428Y065110D01*
Y064108D01*
X101379Y064098D01*
X101378Y064100D01*
X101318Y064178D01*
X101239Y064239D01*
X101172Y064266D01*
Y064861D01*
X101163Y064908D01*
X101137Y064947D01*
X100772Y065311D01*
Y066356D01*
X100830D01*
Y066866D01*
X100470D01*
Y066356D01*
X100528D01*
Y065261D01*
X100528Y065261D01*
X100528D01*
X100537Y065214D01*
X100563Y065174D01*
X100928Y064810D01*
Y064266D01*
X100861Y064239D01*
X100782Y064178D01*
X100722Y064100D01*
X100684Y064009D01*
X100671Y063911D01*
X100684Y063813D01*
X100722Y063721D01*
X100782Y063643D01*
X100861Y063583D01*
X100952Y063545D01*
X101050Y063532D01*
X101148Y063545D01*
X101239Y063583D01*
X101318Y063643D01*
X101378Y063721D01*
X101379Y063723D01*
X101428Y063714D01*
Y063561D01*
X101428Y063561D01*
X101428D01*
X101437Y063514D01*
X101463Y063474D01*
X101763Y063174D01*
X101803Y063148D01*
X101850Y063138D01*
X102400D01*
X102447Y063148D01*
X102487Y063174D01*
X102487Y063174D01*
X102487Y063174D01*
X102885Y063573D01*
X102952Y063545D01*
X103050Y063532D01*
X103148Y063545D01*
X103239Y063583D01*
X103318Y063643D01*
X103378Y063721D01*
X103416Y063813D01*
X103429Y063911D01*
X103416Y064009D01*
X103378Y064100D01*
X103318Y064178D01*
X103239Y064239D01*
X103172Y064266D01*
Y066411D01*
X103163Y066458D01*
X103137Y066497D01*
X102937Y066697D01*
X102897Y066724D01*
X102850Y066733D01*
X102530D01*
Y066866D01*
X102193D01*
X102185Y066886D01*
X102185Y066886D01*
X102174Y066912D01*
X103637Y068374D01*
X103663Y068414D01*
X103663Y068414D01*
X103663Y068414D01*
X103672Y068461D01*
Y072461D01*
X103663Y072508D01*
X103637Y072547D01*
X103337Y072847D01*
X103297Y072874D01*
X103263Y072880D01*
Y073201D01*
X103073Y073391D01*
X102693D01*
X102503Y073201D01*
Y072821D01*
X102693Y072631D01*
X103073D01*
X103090Y072647D01*
X103133Y072638D01*
X103199D01*
X103428Y072410D01*
Y068511D01*
X101782Y066866D01*
X101570D01*
Y066356D01*
X101628D01*
Y065321D01*
X101581Y065302D01*
X101372Y065511D01*
Y066356D01*
X101430D01*
Y066866D01*
X101372D01*
Y067311D01*
X101363Y067358D01*
X101337Y067397D01*
X101187Y067547D01*
X101147Y067574D01*
X101100Y067583D01*
X098250D01*
X098203Y067574D01*
X098163Y067547D01*
X097813Y067197D01*
X097787Y067158D01*
X097778Y067111D01*
Y066866D01*
X097720D01*
Y066356D01*
X098080D01*
Y066488D01*
X098299D01*
X098378Y066410D01*
Y064266D01*
X098311Y064239D01*
X098232Y064178D01*
X098172Y064100D01*
X098134Y064009D01*
X098121Y063911D01*
X098134Y063813D01*
X098162Y063746D01*
X097949Y063533D01*
X097697D01*
X097687Y063582D01*
X097689Y063583D01*
X097768Y063643D01*
X097828Y063721D01*
X097866Y063813D01*
X097879Y063911D01*
X097866Y064009D01*
X097828Y064100D01*
X097768Y064178D01*
X097689Y064239D01*
X097622Y064266D01*
Y065711D01*
X097613Y065758D01*
X097587Y065797D01*
X097422Y065961D01*
Y066356D01*
X097480D01*
Y066866D01*
X097422D01*
Y067260D01*
X097637Y067474D01*
X097663Y067514D01*
X097663Y067514D01*
X097663Y067514D01*
X097672Y067561D01*
Y072810D01*
X097751Y072888D01*
X097937D01*
Y072821D01*
X098127Y072631D01*
X098507D01*
X098697Y072821D01*
Y073201D01*
X098507Y073391D01*
X098127D01*
X097937Y073201D01*
Y073133D01*
X097700D01*
X097653Y073124D01*
X097613Y073097D01*
X097463Y072947D01*
X097437Y072908D01*
X097428Y072861D01*
Y067611D01*
X097213Y067397D01*
X097187Y067358D01*
X097178Y067311D01*
Y066866D01*
X097120D01*
Y066356D01*
X097178D01*
Y065911D01*
X097178Y065911D01*
X097178D01*
X097187Y065864D01*
X097213Y065824D01*
X097378Y065660D01*
Y064266D01*
X097311Y064239D01*
X097232Y064178D01*
X097220Y064162D01*
X097172Y064178D01*
Y065761D01*
X097163Y065808D01*
X097137Y065847D01*
X096822Y066161D01*
Y066356D01*
X096880D01*
Y066866D01*
X096822D01*
Y068861D01*
X096813Y068908D01*
X096787Y068947D01*
X096600Y069134D01*
X096603Y069143D01*
X096612Y069211D01*
X096603Y069279D01*
X096577Y069342D01*
X096535Y069396D01*
X096481Y069438D01*
X096418Y069464D01*
X096350Y069473D01*
X096282Y069464D01*
X096219Y069438D01*
X096165Y069396D01*
X096123Y069342D01*
X096097Y069279D01*
X096088Y069211D01*
X096097Y069143D01*
X096123Y069080D01*
X096165Y069025D01*
X096219Y068984D01*
X096282Y068957D01*
X096350Y068948D01*
X096418Y068957D01*
X096427Y068961D01*
X096578Y068810D01*
Y066866D01*
X096520D01*
Y066356D01*
X096578D01*
Y066111D01*
X096578Y066111D01*
X096578D01*
X096587Y066064D01*
X096613Y066024D01*
X096928Y065710D01*
Y063920D01*
X096878Y063916D01*
X096866Y064009D01*
X096828Y064100D01*
X096768Y064178D01*
X096689Y064239D01*
X096622Y064266D01*
Y065311D01*
X096613Y065358D01*
X096587Y065397D01*
X096222Y065761D01*
Y066356D01*
X096280D01*
Y066866D01*
X095920D01*
Y066733D01*
X095151D01*
X094722Y067161D01*
Y070556D01*
X095180D01*
Y071266D01*
X095134D01*
Y072335D01*
X095626Y072827D01*
X096362D01*
Y072821D01*
X096552Y072631D01*
X096932D01*
X097122Y072821D01*
Y073201D01*
X096932Y073391D01*
X096552D01*
X096362Y073201D01*
Y073194D01*
X095550D01*
X095491Y073183D01*
X095480Y073180D01*
X095420Y073140D01*
X094820Y072540D01*
X094780Y072481D01*
X094778Y072469D01*
X094772Y072439D01*
X094722Y072444D01*
Y072561D01*
X094713Y072608D01*
X094687Y072647D01*
X094237Y073097D01*
X094197Y073124D01*
X094150Y073133D01*
X094130D01*
Y073201D01*
X093940Y073391D01*
X093560D01*
X093370Y073201D01*
Y072821D01*
X093560Y072631D01*
X093940D01*
X094130Y072821D01*
X094130Y072821D01*
Y072821D01*
X094156Y072832D01*
X094478Y072510D01*
Y067111D01*
X094478Y067111D01*
X094478D01*
X094487Y067064D01*
X094513Y067024D01*
X095013Y066524D01*
X095053Y066498D01*
X095100Y066488D01*
X095920D01*
Y066356D01*
X095978D01*
Y065711D01*
X095987Y065664D01*
X096013Y065624D01*
X096378Y065260D01*
Y064266D01*
X096311Y064239D01*
X096232Y064178D01*
X096172Y064100D01*
X096134Y064009D01*
X096121Y063911D01*
X096134Y063813D01*
X096172Y063721D01*
X096232Y063643D01*
X096311Y063583D01*
X096402Y063545D01*
X096500Y063532D01*
X096598Y063545D01*
X096689Y063583D01*
X096768Y063643D01*
X096828Y063721D01*
X096866Y063813D01*
X096878Y063905D01*
X096928Y063902D01*
Y063561D01*
X096928Y063561D01*
X096928D01*
X096937Y063514D01*
X096963Y063474D01*
X097047Y063390D01*
X097028Y063344D01*
X096076D01*
X095875Y063545D01*
Y064286D01*
X095125D01*
Y064094D01*
X094876D01*
X093084Y065887D01*
Y075585D01*
X093426Y075927D01*
X096100D01*
X096159Y075939D01*
X096170Y075941D01*
X096230Y075981D01*
X097030Y076781D01*
X097070Y076840D01*
X097072Y076852D01*
X097084Y076911D01*
Y077581D01*
X097280D01*
Y077688D01*
X098995D01*
Y077631D01*
X099505D01*
Y077688D01*
X100128D01*
Y077631D01*
X100638D01*
Y077688D01*
X101262D01*
Y077631D01*
X101772D01*
Y077688D01*
X102395D01*
Y077631D01*
X102905D01*
Y077991D01*
X102395D01*
Y077933D01*
X101772D01*
Y077991D01*
X101262D01*
Y077933D01*
X100638D01*
Y077991D01*
X100128D01*
Y077933D01*
X099505D01*
Y077991D01*
X098995D01*
Y077933D01*
X097280D01*
Y078341D01*
X097084D01*
Y078781D01*
X097280D01*
Y079541D01*
X097280D01*
Y079542D01*
X097315Y079577D01*
X099674D01*
X100570Y078681D01*
X100630Y078641D01*
X100641Y078639D01*
X100700Y078627D01*
X103250D01*
X103309Y078639D01*
X103320Y078641D01*
X103380Y078681D01*
X103924Y079225D01*
X103970Y079206D01*
Y078531D01*
X104428D01*
Y078311D01*
X104327Y078210D01*
X104318Y078214D01*
X104250Y078223D01*
X104182Y078214D01*
X104119Y078188D01*
X104065Y078146D01*
X104023Y078092D01*
X103997Y078029D01*
X103988Y077961D01*
X103997Y077893D01*
X104023Y077830D01*
X104065Y077775D01*
X104119Y077734D01*
X104182Y077707D01*
X104250Y077698D01*
X104318Y077707D01*
X104381Y077734D01*
X104435Y077775D01*
X104477Y077830D01*
X104503Y077893D01*
X104512Y077961D01*
X104503Y078029D01*
X104500Y078037D01*
X104637Y078174D01*
X104663Y078214D01*
X104672Y078261D01*
Y078531D01*
X105130D01*
Y078788D01*
X105600D01*
Y077901D01*
X105616D01*
Y077161D01*
X105628Y077102D01*
X105630Y077090D01*
X105670Y077031D01*
X105770Y076931D01*
X105810Y076904D01*
X105830Y076891D01*
X105900Y076877D01*
X105970D01*
Y076706D01*
X106016D01*
Y076437D01*
X105824Y076244D01*
X105537D01*
X105535Y076246D01*
X105481Y076288D01*
X105418Y076314D01*
X105350Y076323D01*
X105282Y076314D01*
X105219Y076288D01*
X105165Y076246D01*
X105123Y076192D01*
X105097Y076129D01*
X105088Y076061D01*
X105097Y075993D01*
X105123Y075930D01*
X105165Y075875D01*
X105219Y075834D01*
X105282Y075807D01*
X105350Y075798D01*
X105418Y075807D01*
X105481Y075834D01*
X105535Y075875D01*
X105537Y075877D01*
X105900D01*
X105959Y075889D01*
X105970Y075891D01*
X106030Y075931D01*
X106330Y076231D01*
X106370Y076290D01*
X106372Y076302D01*
X106384Y076361D01*
Y076706D01*
X106430D01*
Y077416D01*
X105984D01*
Y077901D01*
X106000D01*
Y078788D01*
X106100D01*
Y077901D01*
X106500D01*
Y078238D01*
X106600D01*
Y077901D01*
X107000D01*
Y078821D01*
X106600D01*
Y078483D01*
X106500D01*
Y078821D01*
X106422D01*
Y078911D01*
Y078938D01*
X109228D01*
Y078911D01*
Y078821D01*
X109150D01*
Y078483D01*
X109050D01*
Y078821D01*
X108650D01*
Y077901D01*
X109050D01*
Y078238D01*
X109150D01*
Y077901D01*
X109550D01*
Y078788D01*
X109650D01*
Y077901D01*
X109666D01*
Y077416D01*
X109320D01*
Y076706D01*
X109566D01*
Y076387D01*
X109502Y076323D01*
X109453Y076343D01*
X109462Y076411D01*
X109453Y076479D01*
X109427Y076542D01*
X109385Y076596D01*
X109331Y076638D01*
X109268Y076664D01*
X109200Y076673D01*
X109198Y076673D01*
X108980Y076890D01*
Y077416D01*
X108534D01*
Y077901D01*
X108550D01*
Y078821D01*
X108150D01*
Y077901D01*
X108166D01*
Y077311D01*
X108178Y077252D01*
X108180Y077240D01*
X108220Y077181D01*
X108470Y076931D01*
X108510Y076904D01*
X108520Y076898D01*
Y076706D01*
X108645D01*
X108938Y076413D01*
X108938Y076411D01*
X108947Y076343D01*
X108973Y076280D01*
X109004Y076239D01*
X108982Y076194D01*
X108637D01*
X108635Y076196D01*
X108581Y076238D01*
X108518Y076264D01*
X108450Y076273D01*
X108382Y076264D01*
X108319Y076238D01*
X108265Y076196D01*
X108223Y076142D01*
X108197Y076079D01*
X108188Y076011D01*
X108197Y075943D01*
X108223Y075880D01*
X108254Y075839D01*
X108232Y075794D01*
X107868D01*
X107846Y075839D01*
X107877Y075880D01*
X107903Y075943D01*
X107912Y076011D01*
X107903Y076079D01*
X107877Y076142D01*
X107835Y076196D01*
X107781Y076238D01*
X107718Y076264D01*
X107650Y076273D01*
X107582Y076264D01*
X107519Y076238D01*
X107465Y076196D01*
X107423Y076142D01*
X107419Y076133D01*
X107047D01*
X107028Y076179D01*
X107130Y076281D01*
X107170Y076340D01*
X107184Y076411D01*
Y076706D01*
X107230D01*
Y076877D01*
X107250D01*
X107309Y076889D01*
X107320Y076891D01*
X107380Y076931D01*
X107430Y076981D01*
X107470Y077040D01*
X107484Y077111D01*
Y077901D01*
X107500D01*
Y078821D01*
X107100D01*
Y077901D01*
X107116D01*
Y077416D01*
X106770D01*
Y076706D01*
X106816D01*
Y076487D01*
X106652Y076323D01*
X106650Y076323D01*
X106582Y076314D01*
X106519Y076288D01*
X106465Y076246D01*
X106423Y076192D01*
X106397Y076129D01*
X106388Y076061D01*
X106397Y075993D01*
X106423Y075930D01*
X106465Y075875D01*
X106519Y075834D01*
X106582Y075807D01*
X106584Y075807D01*
X106600Y075760D01*
X106474Y075633D01*
X104401D01*
X102905Y077129D01*
Y077391D01*
X102395D01*
Y077031D01*
X102657D01*
X103747Y075940D01*
X103728Y075894D01*
X102009D01*
X101939Y075880D01*
X101919Y075867D01*
X101879Y075840D01*
X101429Y075391D01*
X101188D01*
X100831Y075748D01*
X100771Y075788D01*
X100759Y075790D01*
X100701Y075802D01*
X097350D01*
X097280Y075788D01*
X097220Y075748D01*
X096863Y075391D01*
X096768D01*
X096749Y075437D01*
X097201Y075888D01*
X098850D01*
X098897Y075898D01*
X098937Y075924D01*
X099337Y076324D01*
X099363Y076364D01*
X099363Y076364D01*
X099363Y076364D01*
X099372Y076411D01*
Y077031D01*
X099505D01*
Y077391D01*
X098995D01*
Y077031D01*
X099128D01*
Y076461D01*
X098799Y076133D01*
X097150D01*
X097103Y076124D01*
X097063Y076097D01*
X096514Y075547D01*
X096496Y075544D01*
X096456Y075517D01*
X096236Y075297D01*
X096209Y075257D01*
X096200Y075210D01*
Y074484D01*
X095849Y074133D01*
X094130D01*
Y074201D01*
X093940Y074391D01*
X093560D01*
X093370Y074201D01*
Y073821D01*
X093560Y073631D01*
X093940D01*
X094130Y073821D01*
Y073888D01*
X095900D01*
X095947Y073898D01*
X095987Y073924D01*
X095987Y073924D01*
X095987Y073924D01*
X096409Y074346D01*
X096435Y074386D01*
X096435Y074386D01*
X096435Y074386D01*
X096444Y074433D01*
Y074673D01*
X096491Y074692D01*
X096552Y074631D01*
X096932D01*
X097122Y074821D01*
Y075131D01*
X097426Y075435D01*
X097937D01*
Y075391D01*
X097937D01*
Y074631D01*
X098697D01*
Y075391D01*
X098697D01*
Y075400D01*
X098732Y075435D01*
X100625D01*
X100929Y075131D01*
Y074821D01*
X101119Y074631D01*
X101499D01*
X101689Y074821D01*
Y075131D01*
X102085Y075527D01*
X103763D01*
X104409Y074881D01*
X104449Y074854D01*
X104469Y074841D01*
X104539Y074827D01*
X105495D01*
Y074821D01*
X105685Y074631D01*
X106065D01*
X106255Y074821D01*
Y075107D01*
X106615D01*
X106674Y075119D01*
X106686Y075121D01*
X106745Y075161D01*
X107011Y075427D01*
X107070D01*
Y075391D01*
X107070D01*
Y074631D01*
X107830D01*
Y075391D01*
X107830D01*
Y075392D01*
X107865Y075427D01*
X109766D01*
X110062Y075131D01*
Y074821D01*
X110252Y074631D01*
X110632D01*
X110679Y074677D01*
X111400D01*
X111418Y074681D01*
X111655D01*
Y074856D01*
X111980Y075181D01*
X112020Y075240D01*
X112022Y075252D01*
X112034Y075311D01*
Y086411D01*
X112022Y086469D01*
X112020Y086481D01*
X111980Y086540D01*
X111230Y087290D01*
X111170Y087330D01*
X111159Y087333D01*
X111100Y087344D01*
X109887D01*
X109885Y087346D01*
X109831Y087388D01*
X109768Y087414D01*
X109700Y087423D01*
X109632Y087414D01*
X109569Y087388D01*
X109515Y087346D01*
X109473Y087292D01*
X109447Y087229D01*
X109438Y087161D01*
X109438Y087158D01*
X109370Y087090D01*
X109330Y087031D01*
X109328Y087019D01*
X109316Y086961D01*
Y086621D01*
X109300D01*
Y085720D01*
X109274Y085694D01*
X109200D01*
Y085694D01*
Y085701D01*
X109200Y085730D01*
X109200Y085730D01*
X109200D01*
Y086621D01*
X109122D01*
Y087081D01*
X109255D01*
Y087441D01*
X108745D01*
Y087081D01*
X108878D01*
Y086621D01*
X108800D01*
Y085736D01*
X108754Y085716D01*
X108700Y085770D01*
Y086621D01*
X108300D01*
Y085701D01*
X108300D01*
X108300Y085680D01*
X108265Y085644D01*
X107776D01*
X107700Y085720D01*
Y086621D01*
X107300D01*
Y085701D01*
X107300D01*
X107300Y085680D01*
X107265Y085644D01*
X106776D01*
X106700Y085720D01*
Y086621D01*
X106300D01*
Y085701D01*
X106316D01*
Y085661D01*
X106328Y085602D01*
X106330Y085590D01*
X106370Y085531D01*
X106499Y085402D01*
X106485Y085354D01*
X106483Y085354D01*
X106443Y085327D01*
X106413Y085297D01*
X106387Y085258D01*
X106378Y085211D01*
Y084371D01*
X106300D01*
Y083451D01*
X106700D01*
Y084371D01*
X106622D01*
Y085118D01*
X110170D01*
Y085056D01*
X110170Y085056D01*
X110170Y085016D01*
X110170D01*
Y084883D01*
X107600D01*
X107553Y084874D01*
X107513Y084847D01*
X107413Y084747D01*
X107387Y084708D01*
X107378Y084661D01*
Y084371D01*
X107300D01*
Y083451D01*
X107700D01*
Y084371D01*
X107622D01*
Y084610D01*
X107651Y084638D01*
X108489D01*
X108508Y084592D01*
X108413Y084497D01*
X108387Y084458D01*
X108378Y084411D01*
Y084371D01*
X108300D01*
Y083451D01*
X108700D01*
Y084371D01*
X108698D01*
X108679Y084417D01*
X108701Y084438D01*
X109949D01*
X110170Y084218D01*
Y084059D01*
X110131Y084027D01*
X110100Y084033D01*
X109700D01*
Y084371D01*
X109300D01*
Y083451D01*
X109700D01*
Y083788D01*
X110049D01*
X110170Y083668D01*
Y083406D01*
X110530D01*
Y083916D01*
D01*
Y083916D01*
X110530Y083916D01*
Y083956D01*
X110530D01*
Y084466D01*
D01*
Y084466D01*
X110530Y084466D01*
Y084506D01*
X110530D01*
Y085016D01*
D01*
Y085016D01*
X110530Y085016D01*
Y085056D01*
X110530D01*
Y085566D01*
X110170D01*
Y085363D01*
X109527D01*
X109508Y085409D01*
X109630Y085531D01*
X109670Y085590D01*
X109672Y085602D01*
X109684Y085661D01*
Y085701D01*
X109700D01*
Y086621D01*
X109684D01*
Y086773D01*
X109700Y086898D01*
X109768Y086907D01*
X109831Y086934D01*
X109885Y086975D01*
X109887Y086977D01*
X111024D01*
X111666Y086335D01*
Y080491D01*
X111630D01*
Y080491D01*
X111072D01*
Y083406D01*
X111130D01*
Y083916D01*
D01*
Y083916D01*
X111130Y083916D01*
Y083956D01*
X111130D01*
Y084466D01*
D01*
Y084466D01*
X111130Y084466D01*
Y084506D01*
X111130D01*
Y085016D01*
D01*
Y085016D01*
X111130Y085016D01*
Y085056D01*
X111130D01*
Y085566D01*
X110770D01*
Y085056D01*
X110770Y085056D01*
X110770Y085016D01*
X110770D01*
Y084506D01*
X110770Y084506D01*
X110770Y084466D01*
X110770D01*
Y083956D01*
X110770Y083956D01*
X110770Y083916D01*
X110770D01*
Y083406D01*
X110828D01*
Y080658D01*
X110781Y080639D01*
X110680Y080740D01*
X110620Y080780D01*
X110609Y080783D01*
X110550Y080794D01*
X110050D01*
Y081071D01*
X109650D01*
Y080151D01*
X109666D01*
Y080037D01*
X109624Y079994D01*
X108534D01*
Y080151D01*
X108550D01*
Y081071D01*
X108150D01*
Y080794D01*
X107500D01*
Y081071D01*
X107100D01*
Y080151D01*
X107116D01*
Y080037D01*
X107024Y079944D01*
X106026D01*
X105984Y079987D01*
Y080151D01*
X106000D01*
Y081071D01*
X105600D01*
Y080794D01*
X104700D01*
X104641Y080783D01*
X104630Y080780D01*
X104570Y080740D01*
X104420Y080590D01*
X104380Y080531D01*
X104378Y080519D01*
X104372Y080491D01*
X103970D01*
Y079790D01*
X103174Y078994D01*
X100776D01*
X099880Y079890D01*
X099820Y079930D01*
X099809Y079933D01*
X099750Y079944D01*
X096550D01*
X096491Y079933D01*
X096480Y079930D01*
X096420Y079890D01*
X096070Y079541D01*
X095909D01*
Y080161D01*
X095909Y080161D01*
X095907Y080171D01*
X095912Y080211D01*
X095903Y080279D01*
X095877Y080342D01*
X095835Y080396D01*
X095781Y080438D01*
X095718Y080464D01*
X095650Y080473D01*
X095582Y080464D01*
X095519Y080438D01*
X095465Y080396D01*
X095423Y080342D01*
X095397Y080279D01*
X095388Y080211D01*
X095397Y080143D01*
X095423Y080080D01*
X095465Y080025D01*
X095491Y080005D01*
Y079541D01*
X095320D01*
Y078781D01*
X095850D01*
X095869Y078735D01*
X095570Y078436D01*
X095530Y078376D01*
X095528Y078365D01*
X095526Y078356D01*
X095479Y078342D01*
X094380Y079440D01*
X094320Y079480D01*
X094309Y079483D01*
X094250Y079494D01*
X093732D01*
Y083011D01*
X093725Y083042D01*
X093708Y083068D01*
X093681Y083086D01*
X093650Y083092D01*
X092032D01*
Y083888D01*
X092295D01*
Y083831D01*
X092805D01*
Y084191D01*
X092295D01*
Y084133D01*
X092032D01*
Y087211D01*
X092025Y087242D01*
X092018Y087253D01*
X092008Y087268D01*
X092008Y087268D01*
X091758Y087518D01*
X091760Y087527D01*
X092074D01*
X094970Y084631D01*
X095030Y084591D01*
X095041Y084589D01*
X095100Y084577D01*
X096520D01*
Y084381D01*
X097280D01*
Y084953D01*
X097405Y085078D01*
X097495D01*
Y085031D01*
X098005D01*
Y085031D01*
X098005D01*
X098005Y085031D01*
X098045D01*
Y085031D01*
X098250D01*
Y085211D01*
Y085391D01*
X098045D01*
D01*
D01*
X098045Y085391D01*
X098005D01*
Y085391D01*
X097495D01*
Y085343D01*
X097350D01*
X097299Y085333D01*
X097256Y085304D01*
X097093Y085141D01*
X096520D01*
Y084944D01*
X095176D01*
X092280Y087840D01*
X092220Y087880D01*
X092209Y087883D01*
X092150Y087894D01*
X091576D01*
X091255Y088216D01*
X091283Y088252D01*
X091316Y088332D01*
X091327Y088419D01*
Y088903D01*
X091316Y088989D01*
X091283Y089069D01*
X091234Y089133D01*
Y090637D01*
X091665D01*
Y090927D01*
X091883D01*
X092299Y090511D01*
X092283Y090464D01*
X092282Y090464D01*
X092219Y090438D01*
X092165Y090396D01*
X092123Y090342D01*
X092097Y090279D01*
X092088Y090211D01*
X092088Y090208D01*
X091770Y089890D01*
X091730Y089831D01*
X091728Y089819D01*
X091716Y089761D01*
Y089178D01*
X091665Y089138D01*
X091612Y089069D01*
X091578Y088989D01*
X091567Y088903D01*
Y088419D01*
X091578Y088332D01*
X091612Y088252D01*
X091665Y088183D01*
X091734Y088130D01*
X091814Y088097D01*
X091900Y088086D01*
X091986Y088097D01*
X092066Y088130D01*
X092135Y088183D01*
X092188Y088252D01*
X092222Y088332D01*
X092233Y088419D01*
Y088903D01*
X092222Y088989D01*
X092188Y089069D01*
X092135Y089138D01*
X092084Y089178D01*
Y089685D01*
X092348Y089949D01*
X092350Y089948D01*
X092418Y089957D01*
X092481Y089984D01*
X092535Y090025D01*
X092577Y090080D01*
X092603Y090143D01*
X092603Y090143D01*
X092651Y090160D01*
X092679Y090131D01*
X092739Y090091D01*
X092751Y090089D01*
X092809Y090077D01*
X094324D01*
X094716Y089685D01*
Y089091D01*
X094520D01*
Y088331D01*
X095280D01*
Y088627D01*
X095570D01*
Y088431D01*
X096632D01*
X096651Y088385D01*
X096499Y088233D01*
X093901D01*
X093872Y088261D01*
Y088331D01*
X094130D01*
Y089091D01*
X093934D01*
Y089524D01*
X093935Y089525D01*
X093977Y089580D01*
X094003Y089643D01*
X094012Y089711D01*
X094003Y089779D01*
X093977Y089842D01*
X093935Y089896D01*
X093881Y089938D01*
X093818Y089964D01*
X093750Y089973D01*
X093682Y089964D01*
X093619Y089938D01*
X093565Y089896D01*
X093523Y089842D01*
X093497Y089779D01*
X093488Y089711D01*
X093497Y089643D01*
X093523Y089580D01*
X093565Y089525D01*
X093566Y089524D01*
Y089091D01*
X093370D01*
Y088331D01*
X093628D01*
Y088211D01*
X093637Y088164D01*
X093663Y088124D01*
X093763Y088024D01*
X093763Y088024D01*
X093763D01*
X093763Y088024D01*
X093763D01*
X093763Y088024D01*
Y088024D01*
Y088024D01*
D01*
D01*
X093763D01*
Y088024D01*
X093803Y087998D01*
X093850Y087988D01*
X095570D01*
Y087661D01*
X096730D01*
Y087991D01*
X096668D01*
X096649Y088037D01*
X096799Y088186D01*
X096845Y088167D01*
Y088211D01*
X097100D01*
Y088161D01*
X097150D01*
Y087981D01*
X097355D01*
Y087981D01*
X097355D01*
X097355Y087981D01*
X097395D01*
Y087981D01*
X097600D01*
Y088161D01*
X097650D01*
Y088211D01*
X097905D01*
Y088288D01*
X098350D01*
X098397Y088298D01*
X098437Y088324D01*
X098437Y088324D01*
X098437Y088324D01*
X098792Y088680D01*
X099533D01*
Y088517D01*
X099544Y088462D01*
X099575Y088416D01*
X099621Y088386D01*
X099675Y088375D01*
X099729Y088386D01*
X099774Y088415D01*
X099818Y088386D01*
X099872Y088375D01*
X099908Y088382D01*
X099947Y088350D01*
Y087980D01*
X099663Y087697D01*
X099637Y087658D01*
X099628Y087611D01*
Y087091D01*
X099619Y087088D01*
X099565Y087046D01*
X099523Y086992D01*
X099497Y086929D01*
X099488Y086861D01*
X099497Y086793D01*
X099523Y086730D01*
X099565Y086675D01*
X099619Y086634D01*
X099682Y086607D01*
X099750Y086598D01*
X099818Y086607D01*
X099881Y086634D01*
X099935Y086675D01*
X099977Y086730D01*
X100003Y086793D01*
X100012Y086861D01*
X100003Y086929D01*
X099977Y086992D01*
X099935Y087046D01*
X099881Y087088D01*
X099872Y087091D01*
Y087143D01*
X099902Y087166D01*
X099917Y087173D01*
X099969Y087134D01*
X100032Y087107D01*
X100100Y087098D01*
X100168Y087107D01*
X100231Y087134D01*
X100285Y087175D01*
X100286Y087174D01*
X100330Y087141D01*
Y085878D01*
X100295Y085843D01*
X100160D01*
Y086242D01*
X100149Y086296D01*
X100118Y086342D01*
X100072Y086373D01*
X100018Y086384D01*
X099545D01*
X099491Y086373D01*
X099445Y086342D01*
X099414Y086296D01*
X099403Y086242D01*
Y085943D01*
X099105D01*
Y085991D01*
X098595D01*
D01*
D01*
X098595Y085991D01*
X098555D01*
Y085991D01*
X098422D01*
Y086230D01*
X098431Y086234D01*
X098485Y086275D01*
X098527Y086330D01*
X098553Y086393D01*
X098562Y086461D01*
X098553Y086529D01*
X098527Y086592D01*
X098485Y086646D01*
X098431Y086688D01*
X098368Y086714D01*
X098300Y086723D01*
X098232Y086714D01*
X098169Y086688D01*
X098115Y086646D01*
X098073Y086592D01*
X098047Y086529D01*
X098038Y086461D01*
X098047Y086393D01*
X098073Y086330D01*
X098115Y086275D01*
X098169Y086234D01*
X098178Y086230D01*
Y085991D01*
X098045D01*
D01*
D01*
X098045Y085991D01*
X098005D01*
Y085991D01*
X097495D01*
Y085933D01*
X097280D01*
Y086341D01*
X096520D01*
Y085581D01*
X097280D01*
Y085688D01*
X097495D01*
Y085631D01*
X098005D01*
Y085631D01*
X098005D01*
X098005Y085631D01*
X098045D01*
Y085631D01*
X098555D01*
Y085631D01*
X098555D01*
X098555Y085631D01*
X098595D01*
Y085631D01*
X099105D01*
Y085678D01*
X099403D01*
Y085179D01*
X099414Y085125D01*
X099445Y085079D01*
X099491Y085048D01*
X099545Y085037D01*
X099649D01*
Y084579D01*
X099659Y084528D01*
X099688Y084485D01*
X099688Y084485D01*
X099688Y084485D01*
X099756Y084417D01*
X099799Y084388D01*
X099850Y084378D01*
X100270D01*
Y084256D01*
X100630D01*
Y084766D01*
X100270D01*
Y084643D01*
X099914D01*
Y085037D01*
X100018D01*
X100072Y085048D01*
X100118Y085079D01*
X100149Y085125D01*
X100160Y085179D01*
Y085578D01*
X100350D01*
X100401Y085588D01*
X100444Y085617D01*
X100478Y085651D01*
X100573Y085715D01*
X100663Y085624D01*
X100663Y085624D01*
X100663D01*
X100663Y085624D01*
X100663D01*
X100663Y085624D01*
Y085624D01*
Y085624D01*
D01*
D01*
X100663D01*
Y085624D01*
X100703Y085598D01*
X100750Y085588D01*
X101372D01*
Y085179D01*
X101383Y085125D01*
X101414Y085079D01*
X101460Y085048D01*
X101514Y085037D01*
X101628D01*
Y084633D01*
X101230D01*
Y084766D01*
X100870D01*
Y084256D01*
X101230D01*
Y084388D01*
X101700D01*
X101747Y084398D01*
X101787Y084424D01*
X101787Y084424D01*
X101787Y084424D01*
X101837Y084474D01*
X101863Y084514D01*
X101872Y084561D01*
X101872Y084561D01*
X101872Y084561D01*
Y084561D01*
Y085037D01*
X101986D01*
X102040Y085048D01*
X102086Y085079D01*
X102117Y085125D01*
X102128Y085179D01*
Y085688D01*
X102445D01*
Y085631D01*
X102955D01*
Y085991D01*
X102445D01*
Y085933D01*
X102128D01*
Y086242D01*
X102117Y086296D01*
X102086Y086342D01*
X102040Y086373D01*
X101986Y086384D01*
X101514D01*
X101460Y086373D01*
X101414Y086342D01*
X101383Y086296D01*
X101372Y086242D01*
Y085833D01*
X100801D01*
X100782Y085852D01*
Y086644D01*
X100827Y086666D01*
X100869Y086634D01*
X100932Y086607D01*
X101000Y086598D01*
X101068Y086607D01*
X101131Y086634D01*
X101185Y086675D01*
X101227Y086730D01*
X101253Y086793D01*
X101262Y086861D01*
X101253Y086929D01*
X101227Y086992D01*
X101185Y087046D01*
X101131Y087088D01*
X101068Y087114D01*
X101000Y087123D01*
X100979Y087142D01*
Y088350D01*
X101017Y088382D01*
X101003Y088385D01*
Y088802D01*
X101103D01*
Y088385D01*
X101079Y088380D01*
X101117Y088348D01*
Y087916D01*
X101070D01*
Y087406D01*
X101430D01*
Y087916D01*
X101383D01*
Y088348D01*
X101421Y088380D01*
X101447Y088375D01*
X101501Y088386D01*
X101545Y088415D01*
X101589Y088386D01*
X101644Y088375D01*
X101698Y088386D01*
X101742Y088415D01*
X101786Y088386D01*
X101841Y088375D01*
X101895Y088386D01*
X101941Y088416D01*
X101972Y088462D01*
X101982Y088517D01*
Y089087D01*
X101972Y089142D01*
X101941Y089188D01*
X101895Y089218D01*
X101841Y089229D01*
X101786Y089218D01*
X101742Y089189D01*
X101698Y089218D01*
X101644Y089229D01*
X101589Y089218D01*
X101545Y089189D01*
X101501Y089218D01*
X101447Y089229D01*
X101413Y089223D01*
X101375Y089254D01*
Y089258D01*
X101365Y089309D01*
X101336Y089352D01*
X101183Y089504D01*
X101140Y089533D01*
X101090Y089543D01*
X100756D01*
X100740Y089591D01*
X100785Y089625D01*
X100827Y089680D01*
X100853Y089743D01*
X100862Y089811D01*
X100853Y089879D01*
X100827Y089942D01*
X100826Y089944D01*
X100834Y089960D01*
X100884Y089965D01*
X100915Y089925D01*
X100969Y089884D01*
X101032Y089857D01*
X101100Y089848D01*
X101168Y089857D01*
X101231Y089884D01*
X101285Y089925D01*
X101327Y089980D01*
X101353Y090043D01*
X101362Y090111D01*
X101353Y090179D01*
X101327Y090242D01*
X101285Y090296D01*
X101231Y090338D01*
X101168Y090364D01*
X101100Y090373D01*
X101032Y090364D01*
X100969Y090338D01*
X100915Y090296D01*
X100873Y090242D01*
X100869Y090233D01*
X100324D01*
X100277Y090224D01*
X100237Y090197D01*
X100077Y090037D01*
X099605D01*
X099574Y090075D01*
X099581Y090111D01*
X099570Y090165D01*
X099540Y090210D01*
X099570Y090254D01*
X099581Y090308D01*
X099570Y090362D01*
X099540Y090406D01*
X099570Y090451D01*
X099581Y090505D01*
X099570Y090559D01*
X099540Y090603D01*
X099570Y090647D01*
X099581Y090702D01*
X099570Y090756D01*
X099540Y090800D01*
X099570Y090844D01*
X099581Y090899D01*
X099570Y090953D01*
X099540Y090997D01*
X099570Y091041D01*
X099581Y091095D01*
X099570Y091150D01*
X099540Y091194D01*
X099570Y091238D01*
X099570Y091240D01*
X099618Y091255D01*
X100056Y090817D01*
X100099Y090788D01*
X100150Y090778D01*
X101050D01*
X101101Y090788D01*
X101144Y090817D01*
X101144Y090817D01*
X101144Y090817D01*
X101683Y091357D01*
X101908D01*
X101940Y091318D01*
X101945Y091342D01*
X102362D01*
Y091242D01*
X101945D01*
X101946Y091238D01*
X101975Y091194D01*
X101946Y091150D01*
X101935Y091095D01*
X101946Y091041D01*
X101975Y090997D01*
X101946Y090953D01*
X101935Y090899D01*
X101942Y090863D01*
X101910Y090824D01*
X101822D01*
X101818Y090833D01*
X101776Y090887D01*
X101722Y090929D01*
X101659Y090955D01*
X101591Y090964D01*
X101523Y090955D01*
X101460Y090929D01*
X101406Y090887D01*
X101364Y090833D01*
X101338Y090770D01*
X101329Y090702D01*
X101338Y090634D01*
X101364Y090571D01*
X101406Y090516D01*
X101460Y090475D01*
X101523Y090448D01*
X101591Y090439D01*
X101659Y090448D01*
X101722Y090475D01*
X101776Y090516D01*
X101818Y090571D01*
X101822Y090579D01*
X101910D01*
X101942Y090541D01*
X101935Y090505D01*
X101946Y090451D01*
X101975Y090406D01*
X101946Y090362D01*
X101935Y090308D01*
X101946Y090254D01*
X101975Y090210D01*
X101946Y090165D01*
X101935Y090111D01*
X101946Y090057D01*
X101975Y090013D01*
X101946Y089969D01*
X101935Y089914D01*
X101946Y089860D01*
X101975Y089816D01*
X101946Y089772D01*
X101935Y089717D01*
X101946Y089663D01*
X101975Y089619D01*
X101946Y089575D01*
X101935Y089521D01*
X101946Y089466D01*
X101975Y089422D01*
X101946Y089378D01*
X101935Y089324D01*
X101946Y089269D01*
X101977Y089223D01*
X102023Y089193D01*
X102077Y089182D01*
X102648D01*
X102702Y089193D01*
X102748Y089223D01*
X102779Y089269D01*
X102789Y089324D01*
X102779Y089378D01*
X102749Y089422D01*
X102779Y089466D01*
X102789Y089521D01*
X102779Y089575D01*
X102749Y089619D01*
X102779Y089663D01*
X102789Y089717D01*
X102779Y089772D01*
X102749Y089816D01*
X102779Y089860D01*
X102789Y089914D01*
X102779Y089969D01*
X102749Y090013D01*
X102779Y090057D01*
X102789Y090111D01*
X102779Y090165D01*
X102749Y090210D01*
X102779Y090254D01*
X102789Y090308D01*
X102779Y090362D01*
X102749Y090406D01*
X102779Y090451D01*
X102789Y090505D01*
X102779Y090559D01*
X102749Y090603D01*
X102779Y090647D01*
X102789Y090702D01*
X102779Y090756D01*
X102789Y090776D01*
X103412D01*
X103678Y090510D01*
Y088861D01*
X103678Y088861D01*
X103678D01*
X103687Y088814D01*
X103713Y088774D01*
X105278Y087210D01*
Y083261D01*
X102777Y080760D01*
X102768Y080764D01*
X102700Y080773D01*
X102632Y080764D01*
X102569Y080738D01*
X102515Y080696D01*
X102473Y080642D01*
X102447Y080579D01*
X102438Y080511D01*
X102447Y080443D01*
X102473Y080380D01*
X102515Y080325D01*
X102569Y080284D01*
X102632Y080257D01*
X102700Y080248D01*
X102768Y080257D01*
X102831Y080284D01*
X102885Y080325D01*
X102927Y080380D01*
X102953Y080443D01*
X102962Y080511D01*
X102953Y080579D01*
X102950Y080587D01*
X105391Y083029D01*
X105438Y083010D01*
Y082645D01*
X105416Y082623D01*
X105390D01*
X105343Y082614D01*
X105327Y082603D01*
X105303Y082587D01*
X102552Y079835D01*
X102543Y079839D01*
X102475Y079848D01*
X102407Y079839D01*
X102344Y079813D01*
X102290Y079771D01*
X102248Y079717D01*
X102222Y079654D01*
X102213Y079586D01*
X102222Y079518D01*
X102248Y079455D01*
X102290Y079400D01*
X102344Y079359D01*
X102407Y079332D01*
X102475Y079323D01*
X102543Y079332D01*
X102606Y079359D01*
X102660Y079400D01*
X102702Y079455D01*
X102728Y079518D01*
X102737Y079586D01*
X102728Y079654D01*
X102725Y079662D01*
X105441Y082378D01*
X105466D01*
X105513Y082388D01*
X105553Y082414D01*
X105647Y082508D01*
X105662Y082532D01*
X105673Y082548D01*
X105682Y082594D01*
Y087327D01*
X105673Y087374D01*
X105647Y087414D01*
X104082Y088978D01*
Y090726D01*
X104129Y090745D01*
X104306Y090567D01*
X104349Y090538D01*
X104400Y090528D01*
X105350D01*
X105401Y090538D01*
X105444Y090567D01*
X105472Y090610D01*
X105483Y090661D01*
X105472Y090711D01*
X105444Y090754D01*
X105401Y090783D01*
X105350Y090793D01*
X104455D01*
X104239Y091010D01*
X104258Y091056D01*
X104380D01*
Y091566D01*
D01*
Y091566D01*
X104380Y091566D01*
Y091606D01*
X104380D01*
Y092116D01*
D01*
Y092116D01*
X104380Y092116D01*
Y092156D01*
X104380D01*
Y092666D01*
X104322D01*
Y093711D01*
X104313Y093758D01*
X104287Y093797D01*
X103937Y094147D01*
X103897Y094174D01*
X103850Y094183D01*
X103468D01*
X103445Y094213D01*
X103437Y094228D01*
X103477Y094280D01*
X103503Y094343D01*
X103512Y094411D01*
X103503Y094479D01*
X103477Y094542D01*
X103435Y094596D01*
X103381Y094638D01*
X103318Y094664D01*
X103250Y094673D01*
X103182Y094664D01*
X103119Y094638D01*
X103065Y094596D01*
X103023Y094542D01*
X103019Y094533D01*
X101550D01*
X101522Y094561D01*
Y095295D01*
X101594Y095324D01*
X101675Y095386D01*
X101736Y095466D01*
X101775Y095560D01*
X101788Y095661D01*
X101775Y095761D01*
X101736Y095855D01*
X101675Y095935D01*
X101594Y095997D01*
X101501Y096036D01*
X101400Y096049D01*
X101299Y096036D01*
X101206Y095997D01*
X101125Y095935D01*
X101064Y095855D01*
X101025Y095761D01*
X101012Y095661D01*
X101025Y095560D01*
X101064Y095466D01*
X101125Y095386D01*
X101206Y095324D01*
X101278Y095295D01*
Y094611D01*
X101249Y094583D01*
X100364D01*
X100355Y094596D01*
X100342Y094629D01*
X100487Y094774D01*
X100513Y094814D01*
X100522Y094861D01*
X100522Y094861D01*
X100522Y094861D01*
Y094861D01*
Y095295D01*
X100594Y095324D01*
X100675Y095386D01*
X100736Y095466D01*
X100775Y095560D01*
X100788Y095661D01*
X100775Y095761D01*
X100736Y095855D01*
X100675Y095935D01*
X100594Y095997D01*
X100501Y096036D01*
X100400Y096049D01*
X100299Y096036D01*
X100206Y095997D01*
X100125Y095935D01*
X100064Y095855D01*
X100025Y095761D01*
X100012Y095661D01*
X100025Y095560D01*
X100064Y095466D01*
X100125Y095386D01*
X100206Y095324D01*
X100278Y095295D01*
Y094911D01*
X100199Y094833D01*
X099550D01*
X099503Y094824D01*
X099463Y094797D01*
X099263Y094597D01*
X099237Y094558D01*
X099228Y094511D01*
Y094191D01*
X099095D01*
Y093831D01*
X099605D01*
Y093831D01*
X099605D01*
X099605Y093831D01*
X099645D01*
Y093831D01*
X100155D01*
Y094191D01*
X100022D01*
Y094310D01*
X100051Y094338D01*
X101239D01*
X101258Y094292D01*
X100573Y093607D01*
X100546Y093567D01*
X100537Y093520D01*
Y092463D01*
X100498Y092431D01*
X100463Y092438D01*
X100408Y092427D01*
X100364Y092398D01*
X100320Y092427D01*
X100266Y092438D01*
X100230Y092431D01*
X100191Y092463D01*
Y092942D01*
X100182Y092989D01*
X100155Y093028D01*
X100022Y093161D01*
Y093231D01*
X100155D01*
Y093591D01*
X099645D01*
D01*
D01*
X099645Y093591D01*
X099605D01*
Y093591D01*
X099095D01*
Y093231D01*
X099228D01*
Y092911D01*
X099067Y092751D01*
X099040Y092711D01*
X099031Y092664D01*
Y091631D01*
X098868D01*
X098814Y091620D01*
X098768Y091589D01*
X098737Y091543D01*
X098726Y091489D01*
X098737Y091435D01*
X098767Y091391D01*
X098737Y091346D01*
X098726Y091292D01*
X098737Y091238D01*
X098767Y091194D01*
X098737Y091150D01*
X098726Y091095D01*
X098737Y091041D01*
X098767Y090997D01*
X098737Y090953D01*
X098726Y090899D01*
X098733Y090863D01*
X098702Y090824D01*
X097910D01*
X097587Y091147D01*
X097547Y091174D01*
X097500Y091183D01*
X095880D01*
Y091266D01*
X095520D01*
Y090756D01*
X095880D01*
Y090938D01*
X096702D01*
X096724Y090894D01*
X096723Y090892D01*
X096697Y090829D01*
X096688Y090761D01*
X096697Y090693D01*
X096723Y090630D01*
X096765Y090575D01*
X096819Y090534D01*
X096882Y090507D01*
X096950Y090498D01*
X097018Y090507D01*
X097081Y090534D01*
X097135Y090575D01*
X097177Y090630D01*
X097181Y090638D01*
X097493D01*
X097520Y090596D01*
X097505Y090566D01*
X097450Y090573D01*
X097382Y090564D01*
X097319Y090538D01*
X097265Y090496D01*
X097223Y090442D01*
X097197Y090379D01*
X097188Y090311D01*
X097197Y090243D01*
X097223Y090180D01*
X097265Y090125D01*
X097319Y090084D01*
X097382Y090057D01*
X097450Y090048D01*
X097518Y090057D01*
X097580Y090083D01*
X097608Y090042D01*
X097499Y089933D01*
X096630D01*
Y090066D01*
X096270D01*
Y089556D01*
X096630D01*
Y089688D01*
X097550D01*
X097597Y089698D01*
X097637Y089724D01*
X097901Y089989D01*
X098702D01*
X098733Y089950D01*
X098726Y089914D01*
X098737Y089860D01*
X098767Y089816D01*
X098737Y089772D01*
X098726Y089717D01*
X098737Y089663D01*
X098767Y089619D01*
X098737Y089575D01*
X098736Y089571D01*
X099154D01*
Y089471D01*
X098736D01*
X098731Y089495D01*
X098700Y089456D01*
X098463D01*
X098412Y089446D01*
X098369Y089417D01*
X097893Y088941D01*
X097395D01*
D01*
D01*
X097395Y088941D01*
X097355D01*
Y088941D01*
X097179D01*
X097120Y088980D01*
X097109Y088983D01*
X097050Y088994D01*
X096730D01*
Y089191D01*
X095570D01*
Y088994D01*
X095280D01*
Y089091D01*
X095084D01*
Y089761D01*
X095072Y089819D01*
X095070Y089831D01*
X095030Y089890D01*
X094530Y090390D01*
X094470Y090430D01*
X094459Y090433D01*
X094400Y090444D01*
X092885D01*
X092089Y091241D01*
X092029Y091280D01*
X092018Y091283D01*
X091959Y091294D01*
X091665D01*
Y091585D01*
X091234D01*
Y092758D01*
X091425D01*
Y094032D01*
X092595D01*
Y094031D01*
X093105D01*
Y094032D01*
X093169D01*
X093345Y093856D01*
Y093531D01*
X094055D01*
Y093577D01*
X094774D01*
X095050Y093301D01*
X095090Y093274D01*
X095110Y093261D01*
X095180Y093247D01*
X096445D01*
Y093161D01*
X096955D01*
Y093247D01*
X098254D01*
X098388Y093113D01*
X098388Y093111D01*
X098397Y093043D01*
X098423Y092980D01*
X098465Y092925D01*
X098519Y092884D01*
X098582Y092857D01*
X098650Y092848D01*
X098718Y092857D01*
X098781Y092884D01*
X098835Y092925D01*
X098877Y092980D01*
X098903Y093043D01*
X098912Y093111D01*
X098903Y093179D01*
X098877Y093242D01*
X098835Y093296D01*
X098781Y093338D01*
X098718Y093364D01*
X098650Y093373D01*
X098648Y093373D01*
X098460Y093560D01*
X098400Y093600D01*
X098389Y093603D01*
X098355Y093609D01*
Y093611D01*
X098348D01*
X098330Y093614D01*
X096955D01*
Y093891D01*
X096445D01*
Y093833D01*
X095681D01*
X095510Y094005D01*
X095529Y094051D01*
X095700D01*
Y094971D01*
X095700D01*
X095700Y094998D01*
X095735Y095025D01*
X095777Y095080D01*
X095803Y095143D01*
X095812Y095211D01*
X095803Y095279D01*
X095777Y095342D01*
X095735Y095396D01*
X095681Y095438D01*
X095622Y095462D01*
Y095561D01*
X095613Y095608D01*
X095587Y095647D01*
X095537Y095697D01*
X095497Y095724D01*
X095450Y095733D01*
X095430D01*
Y095866D01*
D01*
Y095866D01*
X095430Y095866D01*
Y095906D01*
X095430D01*
Y096038D01*
X095790D01*
X095813Y095994D01*
X095773Y095942D01*
X095747Y095879D01*
X095738Y095811D01*
X095747Y095743D01*
X095773Y095680D01*
X095815Y095625D01*
X095869Y095584D01*
X095878Y095580D01*
Y094971D01*
X095800D01*
Y094051D01*
X096200D01*
Y094971D01*
X096122D01*
Y095580D01*
X096131Y095584D01*
X096185Y095625D01*
X096227Y095680D01*
X096253Y095743D01*
X096262Y095811D01*
X096253Y095879D01*
X096227Y095942D01*
X096185Y095996D01*
X096131Y096038D01*
X096116Y096044D01*
X096113Y096058D01*
X096087Y096097D01*
X095937Y096247D01*
X095897Y096274D01*
X095850Y096283D01*
X095430D01*
Y096416D01*
D02*
G37*
G36*
X093750Y096091D02*
X093445D01*
Y095911D01*
X093750D01*
Y096091D01*
D02*
G37*
G36*
X096950Y095916D02*
X096770D01*
Y095611D01*
X096950D01*
Y095916D01*
D02*
G37*
G36*
X097230D02*
X097050D01*
Y095611D01*
X097230D01*
Y095916D01*
D02*
G37*
G36*
X093750Y095811D02*
X093445D01*
Y095631D01*
X093750D01*
Y095811D01*
D02*
G37*
G36*
X084050Y097011D02*
X083723D01*
X083730Y096962D01*
X083768Y096869D01*
X083829Y096790D01*
X083908Y096729D01*
X084001Y096690D01*
X084050Y096684D01*
Y097011D01*
D02*
G37*
G36*
X084477D02*
X084150D01*
Y096684D01*
X084199Y096690D01*
X084292Y096729D01*
X084371Y096790D01*
X084432Y096869D01*
X084470Y096962D01*
X084477Y097011D01*
D02*
G37*
G36*
X097230Y096916D02*
X096770D01*
Y096844D01*
X094155D01*
Y096891D01*
X093445D01*
Y096844D01*
X092700D01*
X092630Y096830D01*
X092570Y096790D01*
X092352Y096573D01*
X092350Y096573D01*
X092282Y096564D01*
X092219Y096538D01*
X092165Y096496D01*
X092123Y096442D01*
X092097Y096379D01*
X092088Y096311D01*
X092097Y096243D01*
X092123Y096180D01*
X092165Y096125D01*
X092219Y096084D01*
X092282Y096057D01*
X092350Y096048D01*
X092418Y096057D01*
X092481Y096084D01*
X092535Y096125D01*
X092577Y096180D01*
X092603Y096243D01*
X092612Y096311D01*
X092612Y096313D01*
X092776Y096477D01*
X093445D01*
Y096431D01*
X094155D01*
Y096477D01*
X096770D01*
Y096206D01*
X097230D01*
Y096916D01*
D02*
G37*
G36*
X094155Y096091D02*
X093850D01*
Y095911D01*
X094155D01*
Y096091D01*
D02*
G37*
G36*
X100350Y096611D02*
X100018D01*
X100025Y096560D01*
X100064Y096466D01*
X100125Y096386D01*
X100206Y096324D01*
X100299Y096285D01*
X100350Y096279D01*
Y096611D01*
D02*
G37*
G36*
X100782D02*
X100450D01*
Y096279D01*
X100501Y096285D01*
X100594Y096324D01*
X100675Y096386D01*
X100736Y096466D01*
X100775Y096560D01*
X100782Y096611D01*
D02*
G37*
G36*
X099785Y096046D02*
X099015D01*
Y095276D01*
X099785D01*
Y096046D01*
D02*
G37*
G36*
X093105Y094991D02*
X092900D01*
Y094861D01*
X093105D01*
Y094991D01*
D02*
G37*
G36*
X091000Y095111D02*
X090675D01*
Y094884D01*
X091000D01*
Y095111D01*
D02*
G37*
G36*
X091425D02*
X091100D01*
Y094884D01*
X091425D01*
Y095111D01*
D02*
G37*
G36*
X092800Y094761D02*
X092595D01*
Y094631D01*
X092800D01*
Y094761D01*
D02*
G37*
G36*
X093105D02*
X092900D01*
Y094631D01*
X093105D01*
Y094761D01*
D02*
G37*
G36*
X092800Y094991D02*
X092595D01*
Y094861D01*
X092800D01*
Y094991D01*
D02*
G37*
G36*
X097230Y095511D02*
X097050D01*
Y095206D01*
X097230D01*
Y095511D01*
D02*
G37*
G36*
X091000Y096619D02*
X090675D01*
Y095211D01*
X091000D01*
Y096619D01*
D02*
G37*
G36*
X091425D02*
X091100D01*
Y095211D01*
X091425D01*
Y096619D01*
D02*
G37*
G36*
X082475Y097137D02*
X082308Y097123D01*
X082145Y097084D01*
X081990Y097020D01*
X081847Y096933D01*
X081720Y096824D01*
X081611Y096696D01*
X081524Y096554D01*
X081460Y096399D01*
X081420Y096236D01*
X081407Y096069D01*
X081420Y095902D01*
X081460Y095739D01*
X081524Y095584D01*
X081611Y095441D01*
X081720Y095314D01*
X081847Y095205D01*
X081990Y095118D01*
X082145Y095054D01*
X082308Y095015D01*
X082475Y095001D01*
X082642Y095015D01*
X082805Y095054D01*
X082959Y095118D01*
X083102Y095205D01*
X083230Y095314D01*
X083338Y095441D01*
X083426Y095584D01*
X083490Y095739D01*
X083529Y095902D01*
X083542Y096069D01*
X083529Y096236D01*
X083490Y096399D01*
X083426Y096554D01*
X083338Y096696D01*
X083230Y096824D01*
X083102Y096933D01*
X082959Y097020D01*
X082805Y097084D01*
X082642Y097123D01*
X082475Y097137D01*
D02*
G37*
G36*
X110821D02*
X110654Y097123D01*
X110491Y097084D01*
X110337Y097020D01*
X110194Y096933D01*
X110066Y096824D01*
X109958Y096696D01*
X109870Y096554D01*
X109806Y096399D01*
X109767Y096236D01*
X109754Y096069D01*
X109767Y095902D01*
X109806Y095739D01*
X109870Y095584D01*
X109958Y095441D01*
X110066Y095314D01*
X110194Y095205D01*
X110337Y095118D01*
X110491Y095054D01*
X110654Y095015D01*
X110821Y095001D01*
X110988Y095015D01*
X111151Y095054D01*
X111306Y095118D01*
X111449Y095205D01*
X111576Y095314D01*
X111685Y095441D01*
X111772Y095584D01*
X111837Y095739D01*
X111876Y095902D01*
X111889Y096069D01*
X111876Y096236D01*
X111837Y096399D01*
X111772Y096554D01*
X111685Y096696D01*
X111576Y096824D01*
X111449Y096933D01*
X111306Y097020D01*
X111151Y097084D01*
X110988Y097123D01*
X110821Y097137D01*
D02*
G37*
G36*
X096950Y095511D02*
X096770D01*
Y095206D01*
X096950D01*
Y095511D01*
D02*
G37*
G36*
X094450Y092211D02*
X094300D01*
Y091801D01*
X094450D01*
Y092211D01*
D02*
G37*
G36*
X090039Y089229D02*
X090003Y089224D01*
X089923Y089191D01*
X089854Y089138D01*
X089801Y089069D01*
X089767Y088989D01*
X089756Y088903D01*
Y088711D01*
X090039D01*
Y089229D01*
D02*
G37*
G36*
X096100Y087561D02*
X095570D01*
Y087231D01*
X096100D01*
Y087561D01*
D02*
G37*
G36*
X090422Y088611D02*
X090139D01*
Y088092D01*
X090175Y088097D01*
X090255Y088130D01*
X090324Y088183D01*
X090377Y088252D01*
X090410Y088332D01*
X090422Y088419D01*
Y088611D01*
D02*
G37*
G36*
X097905Y088111D02*
X097700D01*
Y087981D01*
X097905D01*
Y088111D01*
D02*
G37*
G36*
X090039Y088611D02*
X089756D01*
Y088419D01*
X089767Y088332D01*
X089801Y088252D01*
X089854Y088183D01*
X089923Y088130D01*
X090003Y088097D01*
X090039Y088092D01*
Y088611D01*
D02*
G37*
G36*
X081900Y094494D02*
X081801Y094481D01*
X081708Y094443D01*
X081629Y094382D01*
X081568Y094302D01*
X081530Y094210D01*
X081517Y094111D01*
X081530Y094012D01*
X081568Y093919D01*
X081629Y093840D01*
X081708Y093779D01*
X081778Y093750D01*
Y089911D01*
X081778Y089911D01*
X081778D01*
X081787Y089864D01*
X081813Y089824D01*
X081853Y089798D01*
X081900Y089788D01*
X082468D01*
Y087461D01*
X082475Y087430D01*
X082492Y087403D01*
X082519Y087385D01*
X082550Y087379D01*
X083776D01*
X083780Y087329D01*
X083726Y087322D01*
X083611Y087274D01*
X083512Y087199D01*
X083436Y087100D01*
X083388Y086984D01*
X083379Y086911D01*
X084321D01*
X084312Y086984D01*
X084264Y087100D01*
X084188Y087199D01*
X084089Y087274D01*
X083974Y087322D01*
X083920Y087329D01*
X083924Y087379D01*
X084750D01*
X084781Y087385D01*
X084808Y087403D01*
X084825Y087430D01*
X084832Y087461D01*
Y091161D01*
X084825Y091192D01*
X084808Y091218D01*
X084781Y091236D01*
X084750Y091242D01*
X082550D01*
X082519Y091236D01*
X082492Y091218D01*
X082475Y091192D01*
X082468Y091161D01*
Y090033D01*
X082022D01*
Y093750D01*
X082092Y093779D01*
X082171Y093840D01*
X082232Y093919D01*
X082270Y094012D01*
X082283Y094111D01*
X082270Y094210D01*
X082232Y094302D01*
X082171Y094382D01*
X082092Y094443D01*
X081999Y094481D01*
X081900Y094494D01*
D02*
G37*
G36*
X090139Y089229D02*
Y088711D01*
X090422D01*
Y088903D01*
X090410Y088989D01*
X090377Y089069D01*
X090324Y089138D01*
X090255Y089191D01*
X090175Y089224D01*
X090139Y089229D01*
D02*
G37*
G36*
X110700Y089839D02*
X110602Y089826D01*
X110511Y089789D01*
X110432Y089728D01*
X110372Y089650D01*
X110334Y089559D01*
X110321Y089461D01*
X110334Y089363D01*
X110372Y089271D01*
X110432Y089193D01*
X110511Y089133D01*
X110602Y089095D01*
X110700Y089082D01*
X110798Y089095D01*
X110889Y089133D01*
X110968Y089193D01*
X111028Y089271D01*
X111066Y089363D01*
X111079Y089461D01*
X111066Y089559D01*
X111028Y089650D01*
X110968Y089728D01*
X110889Y089789D01*
X110798Y089826D01*
X110700Y089839D01*
D02*
G37*
G36*
X103755Y086891D02*
X103550D01*
Y086761D01*
X103755D01*
Y086891D01*
D02*
G37*
G36*
X104555D02*
X104350D01*
Y086761D01*
X104555D01*
Y086891D01*
D02*
G37*
G36*
X104250D02*
X104045D01*
Y086761D01*
X104250D01*
Y086891D01*
D02*
G37*
G36*
X105150Y089673D02*
X105082Y089664D01*
X105019Y089638D01*
X104965Y089596D01*
X104923Y089542D01*
X104897Y089479D01*
X104888Y089411D01*
X104897Y089343D01*
X104923Y089280D01*
X104965Y089225D01*
X105019Y089184D01*
X105028Y089180D01*
Y088161D01*
X105028Y088161D01*
X105028D01*
X105037Y088114D01*
X105063Y088074D01*
X105363Y087774D01*
X105363Y087774D01*
X105363D01*
X105363Y087774D01*
X105363D01*
X105363Y087774D01*
Y087774D01*
Y087774D01*
D01*
D01*
X105363D01*
Y087774D01*
X105403Y087748D01*
X105450Y087738D01*
X105745D01*
Y087681D01*
X106255D01*
Y088041D01*
X105745D01*
Y087983D01*
X105501D01*
X105272Y088211D01*
Y089180D01*
X105281Y089184D01*
X105335Y089225D01*
X105377Y089280D01*
X105403Y089343D01*
X105412Y089411D01*
X105403Y089479D01*
X105377Y089542D01*
X105335Y089596D01*
X105281Y089638D01*
X105218Y089664D01*
X105150Y089673D01*
D02*
G37*
G36*
X106050Y089323D02*
X105982Y089314D01*
X105919Y089288D01*
X105865Y089246D01*
X105823Y089192D01*
X105797Y089129D01*
X105788Y089061D01*
X105797Y088993D01*
X105823Y088930D01*
X105865Y088875D01*
X105919Y088834D01*
X105982Y088807D01*
X106050Y088798D01*
X106118Y088807D01*
X106181Y088834D01*
X106235Y088875D01*
X106277Y088930D01*
X106281Y088938D01*
X106599D01*
X106878Y088660D01*
Y088041D01*
X106745D01*
Y087681D01*
X107255D01*
Y088041D01*
X107122D01*
Y088711D01*
X107113Y088758D01*
X107087Y088797D01*
X106737Y089147D01*
X106697Y089174D01*
X106650Y089183D01*
X106281D01*
X106277Y089192D01*
X106235Y089246D01*
X106181Y089288D01*
X106118Y089314D01*
X106050Y089323D01*
D02*
G37*
G36*
X102030Y087611D02*
X101900D01*
Y087406D01*
X102030D01*
Y087611D01*
D02*
G37*
G36*
X096730Y087561D02*
X096200D01*
Y087231D01*
X096730D01*
Y087561D01*
D02*
G37*
G36*
X101800Y087611D02*
X101670D01*
Y087406D01*
X101800D01*
Y087611D01*
D02*
G37*
G36*
X107900Y089073D02*
X107832Y089064D01*
X107769Y089038D01*
X107715Y088996D01*
X107673Y088942D01*
X107647Y088879D01*
X107638Y088811D01*
X107647Y088743D01*
X107673Y088680D01*
X107715Y088625D01*
X107769Y088584D01*
X107832Y088557D01*
X107878Y088551D01*
Y088041D01*
X107745D01*
Y087681D01*
X108255D01*
Y088041D01*
X108122D01*
Y088673D01*
X108127Y088680D01*
X108153Y088743D01*
X108162Y088811D01*
X108153Y088879D01*
X108127Y088942D01*
X108085Y088996D01*
X108031Y089038D01*
X107968Y089064D01*
X107900Y089073D01*
D02*
G37*
G36*
X102030Y087916D02*
X101900D01*
Y087711D01*
X102030D01*
Y087916D01*
D02*
G37*
G36*
X097050Y088111D02*
X096845D01*
Y087981D01*
X097050D01*
Y088111D01*
D02*
G37*
G36*
X101800Y087916D02*
X101670D01*
Y087711D01*
X101800D01*
Y087916D01*
D02*
G37*
G36*
X108900Y088773D02*
X108832Y088764D01*
X108769Y088738D01*
X108715Y088696D01*
X108673Y088642D01*
X108647Y088579D01*
X108638Y088511D01*
X108647Y088443D01*
X108673Y088380D01*
X108715Y088325D01*
X108769Y088284D01*
X108832Y088257D01*
X108878Y088251D01*
Y088041D01*
X108745D01*
Y087681D01*
X109255D01*
Y088041D01*
X109122D01*
Y088373D01*
X109127Y088380D01*
X109153Y088443D01*
X109162Y088511D01*
X109153Y088579D01*
X109127Y088642D01*
X109085Y088696D01*
X109031Y088738D01*
X108968Y088764D01*
X108900Y088773D01*
D02*
G37*
G36*
X095280Y087891D02*
X094520D01*
Y087694D01*
X094130D01*
Y087891D01*
X093370D01*
Y087131D01*
X094130D01*
Y087327D01*
X094520D01*
Y087131D01*
X095280D01*
Y087891D01*
D02*
G37*
G36*
X083250Y091556D02*
X082925D01*
Y091329D01*
X083250D01*
Y091556D01*
D02*
G37*
G36*
X083675D02*
X083350D01*
Y091329D01*
X083675D01*
Y091556D01*
D02*
G37*
G36*
X111072Y091411D02*
X110750D01*
Y091089D01*
X110798Y091095D01*
X110889Y091133D01*
X110968Y091193D01*
X111028Y091271D01*
X111066Y091363D01*
X111072Y091411D01*
D02*
G37*
G36*
X093980Y091366D02*
X093800D01*
Y091061D01*
X093980D01*
Y091366D01*
D02*
G37*
G36*
X110650Y091411D02*
X110328D01*
X110334Y091363D01*
X110372Y091271D01*
X110432Y091193D01*
X110511Y091133D01*
X110602Y091095D01*
X110650Y091089D01*
Y091411D01*
D02*
G37*
G36*
X083250Y093064D02*
X082925D01*
Y091656D01*
X083250D01*
Y093064D01*
D02*
G37*
G36*
X083675D02*
X083350D01*
Y091656D01*
X083675D01*
Y093064D01*
D02*
G37*
G36*
X108100Y092061D02*
X107950D01*
Y091651D01*
X108100D01*
Y092061D01*
D02*
G37*
G36*
X108350Y092571D02*
X108200D01*
Y092111D01*
Y091651D01*
X108350D01*
Y091927D01*
X109974D01*
X110337Y091564D01*
X110334Y091559D01*
X110328Y091511D01*
X110650D01*
Y091833D01*
X110602Y091826D01*
X110596Y091824D01*
X110180Y092240D01*
X110120Y092280D01*
X110109Y092283D01*
X110050Y092294D01*
X108350D01*
Y092571D01*
D02*
G37*
G36*
X110750Y091833D02*
Y091511D01*
X111072D01*
X111066Y091559D01*
X111028Y091650D01*
X110968Y091728D01*
X110889Y091789D01*
X110798Y091826D01*
X110750Y091833D01*
D02*
G37*
G36*
X093700Y091366D02*
X093520D01*
Y091061D01*
X093700D01*
Y091366D01*
D02*
G37*
G36*
X110700Y094483D02*
X106976D01*
X106929Y094474D01*
X106890Y094447D01*
X106887Y094443D01*
X106710D01*
X106663Y094434D01*
X106623Y094407D01*
X106413Y094197D01*
X106387Y094158D01*
X106378Y094111D01*
Y093966D01*
X106320D01*
Y093456D01*
X106320Y093456D01*
X106320Y093416D01*
X106320D01*
Y092906D01*
X106680D01*
Y093118D01*
X106837Y093274D01*
X106863Y093314D01*
X106870Y093350D01*
X106920Y093345D01*
Y092906D01*
X107028D01*
Y092571D01*
X106950D01*
Y091651D01*
X107350D01*
Y092571D01*
X107272D01*
Y092906D01*
X107280D01*
Y093416D01*
D01*
Y093416D01*
X107280Y093416D01*
Y093456D01*
X107280D01*
Y093588D01*
X107499D01*
X107528Y093560D01*
Y092571D01*
X107450D01*
Y091651D01*
X107850D01*
Y092571D01*
X107772D01*
Y093611D01*
X107763Y093658D01*
X107737Y093697D01*
X107637Y093797D01*
X107597Y093824D01*
X107550Y093833D01*
X107280D01*
Y093953D01*
X107280Y093953D01*
D01*
D01*
X107280Y093966D01*
D01*
X107303Y093988D01*
X110149D01*
X110578Y093560D01*
Y093441D01*
X110569Y093438D01*
X110515Y093396D01*
X110473Y093342D01*
X110447Y093279D01*
X110438Y093211D01*
X110447Y093143D01*
X110473Y093080D01*
X110515Y093025D01*
X110569Y092984D01*
X110632Y092957D01*
X110700Y092948D01*
X110768Y092957D01*
X110831Y092984D01*
X110885Y093025D01*
X110927Y093080D01*
X110953Y093143D01*
X110956Y093164D01*
X111006Y093171D01*
X111023Y093130D01*
X111065Y093075D01*
X111119Y093034D01*
X111178Y093009D01*
Y090583D01*
X111056D01*
X111028Y090650D01*
X110968Y090728D01*
X110889Y090789D01*
X110798Y090826D01*
X110700Y090839D01*
X110602Y090826D01*
X110511Y090789D01*
X110432Y090728D01*
X110372Y090650D01*
X110334Y090559D01*
X110321Y090461D01*
X110334Y090363D01*
X110372Y090271D01*
X110432Y090193D01*
X110511Y090133D01*
X110602Y090095D01*
X110700Y090082D01*
X110798Y090095D01*
X110889Y090133D01*
X110968Y090193D01*
X111028Y090271D01*
X111056Y090338D01*
X111250D01*
X111297Y090348D01*
X111337Y090374D01*
X111337Y090374D01*
X111337Y090374D01*
X111387Y090424D01*
X111413Y090464D01*
X111422Y090511D01*
X111422Y090511D01*
X111422Y090511D01*
Y090511D01*
Y093065D01*
X111435Y093075D01*
X111477Y093130D01*
X111503Y093193D01*
X111512Y093261D01*
X111503Y093329D01*
X111477Y093392D01*
X111435Y093446D01*
X111381Y093488D01*
X111372Y093491D01*
Y093811D01*
X111363Y093858D01*
X111337Y093897D01*
X110787Y094447D01*
X110747Y094474D01*
X110700Y094483D01*
D02*
G37*
G36*
X096030Y089761D02*
X095900D01*
Y089556D01*
X096030D01*
Y089761D01*
D02*
G37*
G36*
X095800Y090066D02*
X095670D01*
Y089861D01*
X095800D01*
Y090066D01*
D02*
G37*
G36*
X096030D02*
X095900D01*
Y089861D01*
X096030D01*
Y090066D01*
D02*
G37*
G36*
X094780Y091366D02*
X094320D01*
Y090656D01*
X094780D01*
Y090888D01*
X094920D01*
Y090756D01*
X095280D01*
Y091266D01*
X094920D01*
Y091133D01*
X094780D01*
Y091366D01*
D02*
G37*
G36*
X095800Y089761D02*
X095670D01*
Y089556D01*
X095800D01*
Y089761D01*
D02*
G37*
G36*
X093980Y090961D02*
X093800D01*
Y090656D01*
X093980D01*
Y090961D01*
D02*
G37*
G36*
X093700D02*
X093520D01*
Y090656D01*
X093700D01*
Y090961D01*
D02*
G37*
%LPD*%
G36*
X090600Y085211D02*
Y083411D01*
X085800D01*
Y080211D01*
X088650D01*
Y079711D01*
X087500D01*
Y078861D01*
X088650D01*
Y078361D01*
X087150D01*
Y073211D01*
X086900Y072961D01*
X082450D01*
X081700Y073711D01*
Y085168D01*
X081750Y085211D01*
X085300Y085261D01*
Y084061D01*
X088950D01*
X089000Y085261D01*
X090600Y085211D01*
D02*
G37*
G36*
X101393Y091594D02*
X101447Y091583D01*
X101473Y091589D01*
X101496Y091545D01*
X100995Y091043D01*
X100205D01*
X100161Y091087D01*
X100185Y091131D01*
X100200Y091128D01*
X100550D01*
X100601Y091138D01*
X100644Y091167D01*
X100672Y091210D01*
X100683Y091261D01*
X100672Y091311D01*
X100644Y091354D01*
X100601Y091383D01*
X100550Y091393D01*
X100255D01*
X100067Y091581D01*
X100069Y091583D01*
X100123Y091594D01*
X100167Y091624D01*
X100211Y091594D01*
X100266Y091583D01*
X100320Y091594D01*
X100364Y091624D01*
X100408Y091594D01*
X100463Y091583D01*
X100517Y091594D01*
X100561Y091624D01*
X100605Y091594D01*
X100659Y091583D01*
X100714Y091594D01*
X100758Y091624D01*
X100802Y091594D01*
X100856Y091583D01*
X100911Y091594D01*
X100955Y091624D01*
X100999Y091594D01*
X101053Y091583D01*
X101107Y091594D01*
X101152Y091624D01*
X101196Y091594D01*
X101250Y091583D01*
X101304Y091594D01*
X101348Y091624D01*
X101393Y091594D01*
D02*
G37*
G36*
X085000Y068661D02*
Y068011D01*
X089050D01*
Y065811D01*
X083700Y065861D01*
X083150Y066411D01*
Y068811D01*
X084850D01*
X085000Y068661D01*
D02*
G37*
G36*
X090225Y085479D02*
X090582D01*
X090600Y085476D01*
X090618Y085479D01*
X090975D01*
Y085479D01*
X090983D01*
X091018Y085443D01*
Y085088D01*
X090975D01*
Y085088D01*
X090682D01*
Y085211D01*
X090679Y085225D01*
X090676Y085240D01*
X090676Y085241D01*
X090675Y085242D01*
X090667Y085254D01*
X090659Y085267D01*
X090658Y085267D01*
X090658Y085268D01*
X090645Y085277D01*
X090634Y085285D01*
X090632Y085285D01*
X090631Y085286D01*
X090617Y085289D01*
X090603Y085292D01*
X089003Y085342D01*
X088987Y085340D01*
X088972Y085337D01*
X088972Y085337D01*
X088971Y085337D01*
X088958Y085329D01*
X088945Y085321D01*
X088945Y085320D01*
X088944Y085320D01*
X088935Y085308D01*
X088926Y085295D01*
X088926Y085295D01*
X088926Y085294D01*
X088922Y085279D01*
X088919Y085264D01*
X088872Y084142D01*
X085382D01*
Y085261D01*
X085381Y085261D01*
X085382Y085262D01*
X085378Y085277D01*
X085375Y085292D01*
X085375Y085292D01*
X085375Y085293D01*
X085366Y085306D01*
X085358Y085318D01*
X085357Y085319D01*
X085357Y085319D01*
X085344Y085328D01*
X085331Y085336D01*
X085331Y085336D01*
X085330Y085337D01*
X085315Y085339D01*
X085300Y085342D01*
X085299Y085342D01*
X085299Y085342D01*
X084123Y085326D01*
X084119Y085327D01*
X084047Y085337D01*
X083882D01*
X083879Y085387D01*
X083974Y085399D01*
X084089Y085447D01*
X084131Y085479D01*
X090225D01*
Y085479D01*
D02*
G37*
G36*
X094500Y078011D02*
Y076511D01*
X092350D01*
Y074511D01*
X090800D01*
X090450Y074761D01*
Y077461D01*
X090200Y077711D01*
X087650D01*
Y078161D01*
X094350D01*
X094500Y078011D01*
D02*
G37*
G36*
X089050Y072611D02*
Y068761D01*
X085900D01*
Y070961D01*
X084050D01*
X083600Y071411D01*
Y072711D01*
X088950D01*
X089050Y072611D01*
D02*
G37*
G36*
X091950Y087211D02*
Y083011D01*
X093650D01*
Y079061D01*
X087650D01*
Y079561D01*
X089200D01*
Y080511D01*
X086250D01*
Y083011D01*
X091100D01*
Y085561D01*
X081700D01*
Y086161D01*
X088900D01*
Y087311D01*
X089050Y087461D01*
X091700D01*
X091950Y087211D01*
D02*
G37*
%LPC*%
G36*
X087900Y084611D02*
X087570D01*
Y084471D01*
X087760Y084281D01*
X087900D01*
Y084611D01*
D02*
G37*
G36*
X086362Y085041D02*
X085602D01*
Y084281D01*
X086362D01*
Y085041D01*
D02*
G37*
G36*
X088330Y084611D02*
X088000D01*
Y084281D01*
X088140D01*
X088330Y084471D01*
Y084611D01*
D02*
G37*
G36*
X088140Y085041D02*
X088000D01*
Y084711D01*
X088330D01*
Y084851D01*
X088140Y085041D01*
D02*
G37*
G36*
X087900D02*
X087760D01*
X087570Y084851D01*
Y084711D01*
X087900D01*
Y085041D01*
D02*
G37*
%LPD*%
D10*
X098100Y093431D02*
D03*
Y092831D02*
D03*
X097650Y088761D02*
D03*
Y088161D02*
D03*
X103500Y086111D02*
D03*
Y086711D02*
D03*
X104300Y086111D02*
D03*
Y086711D02*
D03*
X099350Y094011D02*
D03*
Y093411D02*
D03*
X099900Y094011D02*
D03*
Y093411D02*
D03*
X096700Y093711D02*
D03*
Y093111D02*
D03*
X111400Y074261D02*
D03*
Y074861D02*
D03*
X102650Y077811D02*
D03*
Y077211D02*
D03*
X101517Y077811D02*
D03*
Y077211D02*
D03*
X099250Y077811D02*
D03*
Y077211D02*
D03*
X100383Y077811D02*
D03*
Y077211D02*
D03*
X109000Y087861D02*
D03*
Y087261D02*
D03*
X108000Y087861D02*
D03*
Y087261D02*
D03*
X107000Y087861D02*
D03*
Y087261D02*
D03*
X106000Y087861D02*
D03*
Y087261D02*
D03*
X092850Y094811D02*
D03*
Y094211D02*
D03*
X097750Y085211D02*
D03*
Y085811D02*
D03*
X092550Y084011D02*
D03*
Y084611D02*
D03*
X098300Y085211D02*
D03*
Y085811D02*
D03*
X098850Y085211D02*
D03*
Y085811D02*
D03*
X102700Y085211D02*
D03*
Y085811D02*
D03*
X097100Y088161D02*
D03*
Y088761D02*
D03*
D11*
X101250Y087661D02*
D03*
X101850D02*
D03*
X101250Y066611D02*
D03*
X100650D02*
D03*
X102350D02*
D03*
X101750D02*
D03*
X096700D02*
D03*
X096100D02*
D03*
X097900D02*
D03*
X097300D02*
D03*
X110350Y085311D02*
D03*
X110950D02*
D03*
X110350Y084761D02*
D03*
X110950D02*
D03*
X110350Y084211D02*
D03*
X110950D02*
D03*
X110350Y083661D02*
D03*
X110950D02*
D03*
X094650Y095611D02*
D03*
X095250D02*
D03*
X094650Y096161D02*
D03*
X095250D02*
D03*
X095850Y089811D02*
D03*
X096450D02*
D03*
X101050Y084511D02*
D03*
X100450D02*
D03*
X095700Y091011D02*
D03*
X095100D02*
D03*
X082100Y070911D02*
D03*
X082700D02*
D03*
X082100Y070361D02*
D03*
X082700D02*
D03*
X104200Y092411D02*
D03*
X104800D02*
D03*
X107100Y093711D02*
D03*
X106500D02*
D03*
X104200Y091861D02*
D03*
X104800D02*
D03*
X107100Y093161D02*
D03*
X106500D02*
D03*
X104200Y091311D02*
D03*
X104800D02*
D03*
D12*
X104300Y085461D02*
D03*
X103500D02*
D03*
X109550Y077061D02*
D03*
X108750D02*
D03*
X107000D02*
D03*
X106200D02*
D03*
X109350Y070911D02*
D03*
X108550D02*
D03*
X104817D02*
D03*
X104017D02*
D03*
X095750D02*
D03*
X094950D02*
D03*
X100283D02*
D03*
X099483D02*
D03*
X097000Y096561D02*
D03*
X097800D02*
D03*
X097000Y095561D02*
D03*
X097800D02*
D03*
X094550Y091011D02*
D03*
X093750D02*
D03*
D13*
X093700Y092961D02*
D03*
Y093761D02*
D03*
X093800Y095861D02*
D03*
Y096661D02*
D03*
X093250Y084611D02*
D03*
Y083811D02*
D03*
D14*
X095700Y077961D02*
D03*
X096900D02*
D03*
X095700Y079161D02*
D03*
X096900D02*
D03*
X098317Y075011D02*
D03*
X093750D02*
D03*
X102883D02*
D03*
X107450D02*
D03*
D15*
X093750Y087511D02*
D03*
Y088711D02*
D03*
X096900Y085961D02*
D03*
Y084761D02*
D03*
X094900Y088711D02*
D03*
Y087511D02*
D03*
X085982Y084661D02*
D03*
D16*
X104550Y078911D02*
D03*
Y080111D02*
D03*
X111050Y078911D02*
D03*
Y080111D02*
D03*
X096150Y088811D02*
D03*
Y087611D02*
D03*
D17*
X108850Y078361D02*
D03*
X108350D02*
D03*
Y080611D02*
D03*
X109350Y078361D02*
D03*
X108850Y080611D02*
D03*
X109850Y078361D02*
D03*
X109350Y080611D02*
D03*
X109850D02*
D03*
X106300Y078361D02*
D03*
X105800D02*
D03*
Y080611D02*
D03*
X106800Y078361D02*
D03*
X106300Y080611D02*
D03*
X107300Y078361D02*
D03*
X106800Y080611D02*
D03*
X107300D02*
D03*
X109500Y086161D02*
D03*
X109000D02*
D03*
X109500Y083911D02*
D03*
X108500Y086161D02*
D03*
X109000Y083911D02*
D03*
X108000Y086161D02*
D03*
Y083911D02*
D03*
X108500D02*
D03*
X106500Y086161D02*
D03*
X106000D02*
D03*
X107000D02*
D03*
X107500D02*
D03*
X106500Y083911D02*
D03*
X106000D02*
D03*
X107000D02*
D03*
X107500D02*
D03*
X095500Y094511D02*
D03*
X096000D02*
D03*
Y092261D02*
D03*
X095000Y094511D02*
D03*
X095500Y092261D02*
D03*
X094500Y094511D02*
D03*
X095000Y092261D02*
D03*
X094500D02*
D03*
X106650Y089861D02*
D03*
X107150D02*
D03*
X106650Y092111D02*
D03*
X107650Y089861D02*
D03*
X107150Y092111D02*
D03*
X108150Y089861D02*
D03*
Y092111D02*
D03*
X107650D02*
D03*
D18*
X090994Y091111D02*
D03*
D19*
Y088661D02*
D03*
X091900D02*
D03*
X090089D02*
D03*
D20*
X099675Y088802D02*
D03*
X099872D02*
D03*
X100069D02*
D03*
X100266D02*
D03*
X100463D02*
D03*
X100659D02*
D03*
X100856D02*
D03*
X101053D02*
D03*
X101250D02*
D03*
X101447D02*
D03*
X101644D02*
D03*
X101841D02*
D03*
Y092011D02*
D03*
X101644D02*
D03*
X101447D02*
D03*
X101250D02*
D03*
X101053D02*
D03*
X100856D02*
D03*
X100659D02*
D03*
X100463D02*
D03*
X100266D02*
D03*
X100069D02*
D03*
X099872D02*
D03*
X099675D02*
D03*
D21*
X102362Y089324D02*
D03*
Y089521D02*
D03*
Y089717D02*
D03*
Y089914D02*
D03*
Y090111D02*
D03*
Y090308D02*
D03*
Y090505D02*
D03*
Y090702D02*
D03*
Y090899D02*
D03*
Y091095D02*
D03*
Y091292D02*
D03*
Y091489D02*
D03*
X099154D02*
D03*
Y091292D02*
D03*
Y091095D02*
D03*
Y090899D02*
D03*
Y090702D02*
D03*
Y090505D02*
D03*
Y090308D02*
D03*
Y090111D02*
D03*
Y089914D02*
D03*
Y089717D02*
D03*
Y089521D02*
D03*
Y089324D02*
D03*
D22*
X091250Y073061D02*
D03*
Y075161D02*
D03*
D23*
X084100Y097061D02*
D03*
X081900Y094111D02*
D03*
X084300Y082011D02*
D03*
X087550Y081761D02*
D03*
D24*
X101750Y085711D02*
D03*
X099782D02*
D03*
D25*
X083800Y070361D02*
D03*
Y068561D02*
D03*
D26*
X083050Y075061D02*
D03*
D27*
X083950Y072161D02*
D03*
X082150D02*
D03*
D28*
X092150Y081935D02*
D03*
Y077211D02*
D03*
D29*
X088100Y079969D02*
D03*
Y079299D02*
D03*
Y078630D02*
D03*
Y077961D02*
D03*
Y077291D02*
D03*
D30*
X083150Y078630D02*
D03*
D31*
X098463Y089324D02*
X099154D01*
X097900Y088761D02*
X098463Y089324D01*
X097100Y088761D02*
X097900D01*
X101250Y087661D02*
Y088802D01*
X099782Y084579D02*
Y085711D01*
Y084579D02*
X099850Y084511D01*
X104400Y090661D02*
X105350D01*
X104055Y091006D02*
X104400Y090661D01*
X103970Y091006D02*
X104055D01*
X103684Y091292D02*
X103970Y091006D01*
X102362Y091292D02*
X103684D01*
X101050Y090911D02*
X101628Y091489D01*
X100150Y090911D02*
X101050D01*
X099683Y091378D02*
X100150Y090911D01*
X100200Y091261D02*
X100550D01*
X099872Y091589D02*
X100200Y091261D01*
X099872Y091589D02*
Y092011D01*
X099683Y091378D02*
Y092003D01*
X099154Y089324D02*
X099913D01*
X100000Y089411D01*
X101090D01*
X101242Y089258D01*
Y088810D02*
Y089258D01*
Y088810D02*
X101250Y088802D01*
X097350Y085211D02*
X097750D01*
X096900Y084761D02*
X097350Y085211D01*
X099675Y092011D02*
Y092736D01*
X101628Y091489D02*
X102362D01*
X099675Y092011D02*
X099683Y092003D01*
X100463Y085823D02*
Y088802D01*
X100350Y085711D02*
X100463Y085823D01*
X099850Y084511D02*
X100450D01*
X098850Y085811D02*
X099682D01*
X099782Y085711D02*
X100350D01*
X082100Y072111D02*
X082150Y072161D01*
X082100Y070361D02*
Y070911D01*
Y072111D01*
D32*
X091050Y094216D02*
X093245D01*
X091050Y091111D02*
Y094216D01*
Y088716D02*
Y091111D01*
X098100Y093431D02*
X098330D01*
X095180D02*
X098100D01*
X109700Y087161D02*
X111100D01*
X111850Y086411D01*
Y075311D02*
Y086411D01*
X111400Y074861D02*
X111850Y075311D01*
X092900Y065811D02*
Y075661D01*
X095100Y084761D02*
X096900D01*
X092150Y087711D02*
X095100Y084761D01*
X091500Y087711D02*
X092150D01*
X090994Y088216D02*
X091500Y087711D01*
X090994Y088216D02*
Y088661D01*
X091711Y065771D02*
Y067261D01*
X090800Y064861D02*
X091711Y065771D01*
X087950Y064861D02*
X090800D01*
X110550Y080611D02*
X110950Y080211D01*
X111050Y080111D01*
X103250Y078811D02*
X104550Y080111D01*
X100700Y078811D02*
X103250D01*
X099750Y079761D02*
X100700Y078811D01*
X096900Y077961D02*
Y079161D01*
X097350Y075619D02*
X100701D01*
X096550Y079761D02*
X099750D01*
X096180Y079391D02*
X096550Y079761D01*
X096180Y078786D02*
Y079391D01*
X105950Y079761D02*
X107100D01*
X095700Y078306D02*
X096180Y078786D01*
X095700Y077961D02*
Y078306D01*
X096900Y076911D02*
Y077961D01*
X096100Y076111D02*
X096900Y076911D01*
X093350Y076111D02*
X096100D01*
X092900Y075661D02*
X093350Y076111D01*
X092900Y065811D02*
X094800Y063911D01*
X095500D01*
X099300Y063161D02*
X100050Y063911D01*
X096000Y063161D02*
X099300D01*
X095500Y063661D02*
X096000Y063161D01*
X095500Y063661D02*
Y063911D01*
X094300Y093761D02*
X094850D01*
X093700D02*
X094300D01*
X094500Y093961D01*
X098330Y093431D02*
X098650Y093111D01*
X094850Y093761D02*
X095180Y093431D01*
X099650Y097261D02*
X104800D01*
X105550Y096511D01*
X099400Y097011D02*
X099650Y097261D01*
X109500Y086961D02*
X109700Y087161D01*
X109500Y086161D02*
Y086961D01*
X105550Y092661D02*
Y096511D01*
X108500Y085711D02*
X108700Y085511D01*
X108500Y085611D02*
Y085711D01*
Y086161D01*
X107500Y085661D02*
X107550Y085611D01*
X107700Y085461D01*
X107500Y085611D02*
X107550D01*
X107500Y085661D02*
Y086161D01*
X109500Y085661D02*
Y086161D01*
X109350Y085511D02*
X109500Y085661D01*
X108700Y085511D02*
X109350D01*
X108350Y085461D02*
X108500Y085611D01*
X107700Y085461D02*
X108350D01*
X107350D02*
X107500Y085611D01*
X106700Y085461D02*
X107350D01*
X106500Y085661D02*
X106700Y085461D01*
X106500Y085661D02*
Y086161D01*
X091050Y091111D02*
X091959D01*
X090994D02*
X091050D01*
X091959D02*
X092809Y090261D01*
X094400D01*
X094900Y089761D01*
Y088711D02*
Y089761D01*
X108150Y092111D02*
X110050D01*
X110700Y091461D01*
X109800Y088461D02*
X110700D01*
X109400Y088861D02*
X109800Y088461D01*
X109400Y088861D02*
Y090061D01*
X108400Y091061D02*
X109400Y090061D01*
X107150Y091061D02*
X108400D01*
X106650Y091561D02*
X107150Y091061D01*
X106650Y091561D02*
Y092111D01*
X104700Y080611D02*
X105800D01*
X104550Y080461D02*
X104700Y080611D01*
X104550Y080111D02*
Y080461D01*
X108550Y070911D02*
Y072711D01*
X104017Y070911D02*
Y072477D01*
X104550Y073011D01*
X094950Y072411D02*
X095550Y073011D01*
X094950Y070911D02*
Y072411D01*
X097800Y095561D02*
Y096561D01*
X106100Y092111D02*
X106650D01*
X105550Y092661D02*
X106100Y092111D01*
X099400Y096661D02*
Y097011D01*
X091900Y089761D02*
X092350Y090211D01*
X091900Y088661D02*
Y089761D01*
X092350Y096311D02*
X092700Y096661D01*
X096900D01*
X097000Y096561D01*
X097800D02*
X099300D01*
X095600Y077961D02*
X095700D01*
X094250Y079311D02*
X095600Y077961D01*
X093000Y079311D02*
X094250D01*
X106935Y075611D02*
X109842D01*
X106615Y075291D02*
X106935Y075611D01*
X106155Y075291D02*
X106615D01*
X105875Y075011D02*
X106155Y075291D01*
X104539Y075011D02*
X105875D01*
X103839Y075711D02*
X104539Y075011D01*
X102009Y075711D02*
X103839D01*
X096742Y075011D02*
X097350Y075619D01*
X108850Y073011D02*
X110442D01*
X108550Y072711D02*
X108850Y073011D01*
X104550D02*
X105875D01*
X099850D02*
X101309D01*
X099483Y072644D02*
X099850Y073011D01*
X099483Y070911D02*
Y072644D01*
X095550Y073011D02*
X096742D01*
X100701Y075619D02*
X101309Y075011D01*
X102009Y075711D01*
X109842Y075611D02*
X110442Y075011D01*
X110592Y074861D01*
X111400D01*
X111150Y074011D02*
X111400Y074261D01*
X110442Y074011D02*
X111150D01*
X109550Y077061D02*
X109750Y076861D01*
Y076311D02*
Y076861D01*
X109450Y076011D02*
X109750Y076311D01*
X108450Y076011D02*
X109450D01*
X108750Y076861D02*
X109200Y076411D01*
X108750Y076861D02*
Y077061D01*
X106650Y076061D02*
X107000Y076411D01*
Y077061D01*
X105350Y076061D02*
X105900D01*
X106200Y076361D01*
Y077061D01*
X109850Y077261D02*
Y078361D01*
X109650Y077061D02*
X109850Y077261D01*
X109550Y077061D02*
X109650D01*
X108600D02*
X108750D01*
X108350Y077311D02*
X108600Y077061D01*
X108350Y077311D02*
Y078361D01*
X107300Y077111D02*
Y078361D01*
X107250Y077061D02*
X107300Y077111D01*
X107000Y077061D02*
X107250D01*
X105800Y077161D02*
Y078361D01*
Y077161D02*
X105900Y077061D01*
X106200D01*
X109850Y080611D02*
X110550D01*
X109850Y079961D02*
Y080611D01*
X109700Y079811D02*
X109850Y079961D01*
X108400Y079811D02*
X109700D01*
X108350Y079861D02*
X108400Y079811D01*
X108350Y079861D02*
Y080611D01*
X107300D02*
X108350D01*
X107300Y079961D02*
Y080611D01*
X107100Y079761D02*
X107300Y079961D01*
X105800Y079911D02*
X105950Y079761D01*
X105800Y079911D02*
Y080611D01*
X093750Y087511D02*
X094900D01*
X093750Y088711D02*
Y089711D01*
X095000Y088811D02*
X096150D01*
X090994Y088661D02*
X091050Y088716D01*
X093245Y094216D02*
X093700Y093761D01*
X097050Y088811D02*
X097100Y088761D01*
X096150Y088811D02*
X097050D01*
X094650Y095611D02*
Y096161D01*
Y095211D02*
Y095611D01*
X094500Y095061D02*
X094650Y095211D01*
X094500Y094511D02*
Y095061D01*
Y093961D02*
Y094511D01*
D33*
X107150Y089861D02*
X107650D01*
X091250Y071811D02*
X091450Y071611D01*
X091250Y071811D02*
Y073061D01*
X094600Y067111D02*
Y072561D01*
Y067111D02*
X095100Y066611D01*
X096350Y069211D02*
X096700Y068861D01*
Y066611D02*
Y068861D01*
X097900Y066611D02*
Y067111D01*
X098250Y067461D01*
X101100D01*
X101250Y067311D01*
Y066611D02*
Y067311D01*
X103050Y063911D02*
Y066411D01*
X102850Y066611D02*
X103050Y066411D01*
X102350Y066611D02*
X102850D01*
X102400Y063261D02*
X103050Y063911D01*
X101850Y063261D02*
X102400D01*
X101550Y063561D02*
X101850Y063261D01*
X101550Y063561D02*
Y065161D01*
X101250Y065461D02*
X101550Y065161D01*
X101250Y065461D02*
Y066611D01*
X101750Y065311D02*
X102050Y065011D01*
X101750Y065311D02*
Y066611D01*
X102050Y063911D02*
Y065011D01*
X098500Y063911D02*
Y066461D01*
X098350Y066611D02*
X098500Y066461D01*
X097900Y066611D02*
X098350D01*
X098000Y063411D02*
X098500Y063911D01*
X097200Y063411D02*
X098000D01*
X097050Y063561D02*
X097200Y063411D01*
X097050Y063561D02*
Y065761D01*
X096700Y066111D02*
X097050Y065761D01*
X096700Y066111D02*
Y066611D01*
X094100Y083811D02*
X104250D01*
X082550Y089911D02*
X083300Y090661D01*
X081900Y089911D02*
X082550D01*
X081900D02*
Y094111D01*
X110950Y080211D02*
Y083661D01*
X108850Y078361D02*
X109350D01*
Y078911D02*
Y079061D01*
Y078361D02*
Y078911D01*
X111050D01*
X104550D02*
X106300D01*
Y079061D01*
Y078361D02*
Y078911D01*
Y078361D02*
X106800D01*
X106300Y079061D02*
X109350D01*
X104250Y077961D02*
X104550Y078261D01*
Y078911D01*
X102700Y080511D02*
X105400Y083211D01*
Y087261D01*
X102475Y079586D02*
X105390Y082501D01*
X100383Y077811D02*
X101517D01*
X099250Y076411D02*
Y077211D01*
X098850Y076011D02*
X099250Y076411D01*
X097150Y076011D02*
X098850D01*
X101517Y077811D02*
X102650D01*
X103960Y088927D02*
Y090751D01*
X103615Y091095D02*
X103960Y090751D01*
X102362Y091095D02*
X103615D01*
X103462Y090899D02*
X103800Y090561D01*
X102362Y090899D02*
X103462D01*
X096900Y077961D02*
X097050Y077811D01*
X099350Y092861D02*
Y093411D01*
X099154Y092664D02*
X099350Y092861D01*
X099154Y091489D02*
Y092664D01*
X095000Y094341D02*
Y094511D01*
Y094341D02*
X095630Y093711D01*
X096700D01*
X100324Y090111D02*
X101100D01*
X100127Y089914D02*
X100324Y090111D01*
X101850Y085811D02*
X102700D01*
X106800Y094111D02*
X110200D01*
X106750Y094061D02*
X106800Y094111D01*
X106750Y093361D02*
Y094061D01*
X106530Y085241D02*
X110280D01*
X110350Y085311D01*
X106500Y085211D02*
X106530Y085241D01*
X106500Y083911D02*
Y085211D01*
X105560Y082594D02*
Y087327D01*
X103800Y088861D02*
X105400Y087261D01*
X105466Y082501D02*
X105560Y082594D01*
X103960Y088927D02*
X105560Y087327D01*
X099900Y093111D02*
Y093411D01*
Y093111D02*
X100069Y092942D01*
Y092011D02*
Y092942D01*
X107920Y090841D02*
X108150Y090611D01*
X107059Y090841D02*
X107920D01*
X106989Y090911D02*
X107059Y090841D01*
X106750Y090911D02*
X106989D01*
X111250Y093261D02*
X111300Y093211D01*
Y090511D02*
Y093211D01*
X111250Y090461D02*
X111300Y090511D01*
X110700Y090461D02*
X111250D01*
X105390Y082501D02*
X105466D01*
X100250Y089811D02*
X100600D01*
X100157Y089717D02*
X100250Y089811D01*
X099154Y089914D02*
X100127D01*
X099154Y089717D02*
X100157D01*
X101550Y090661D02*
X101591Y090702D01*
X102362D01*
X105150Y088161D02*
Y089411D01*
Y088161D02*
X105450Y087861D01*
X103800Y088861D02*
Y090561D01*
X101447Y092011D02*
Y092858D01*
X101250Y093161D02*
X101600Y093511D01*
X101250Y092011D02*
Y093161D01*
X100659Y092011D02*
Y093520D01*
X101600Y093011D02*
X103200D01*
X101447Y092858D02*
X101600Y093011D01*
X100856Y092011D02*
Y093417D01*
X101600Y093511D02*
X102250D01*
X101053Y092011D02*
Y093364D01*
X100000Y094461D02*
X101300D01*
X100400Y094861D02*
Y095661D01*
X100250Y094711D02*
X100400Y094861D01*
X099550Y094711D02*
X100250D01*
X104800Y092411D02*
X105250D01*
X104800Y091861D02*
X105574D01*
X104800Y091311D02*
X105897D01*
X103800Y092261D02*
X104200Y091861D01*
X105897Y091311D02*
X106650Y090558D01*
X105574Y091861D02*
X106684Y090751D01*
X105250Y092411D02*
X106750Y090911D01*
X107650Y092111D02*
Y093611D01*
X106684Y090751D02*
X106910D01*
X106650Y089861D02*
Y090558D01*
X108150Y089861D02*
Y090611D01*
X103700Y065661D02*
X106000D01*
X108050Y067711D01*
Y072411D01*
X107450Y073011D02*
X108050Y072411D01*
X101750Y066611D02*
Y066661D01*
X103550Y068461D01*
Y072461D01*
X103250Y072761D02*
X103550Y072461D01*
X103133Y072761D02*
X103250D01*
X102883Y073011D02*
X103133Y072761D01*
X097300Y066611D02*
Y067311D01*
X097550Y067561D01*
Y072861D01*
X097700Y073011D01*
X098317D01*
X095100Y066611D02*
X096100D01*
X094150Y073011D02*
X094600Y072561D01*
X093750Y073011D02*
X094150D01*
X093750Y074011D02*
X095900D01*
X101050Y063911D02*
Y064861D01*
X100650Y065261D02*
X101050Y064861D01*
X100650Y065261D02*
Y066611D01*
X097300Y065911D02*
Y066611D01*
Y065911D02*
X097500Y065711D01*
Y063911D02*
Y065711D01*
X096500Y063911D02*
Y065311D01*
X096100Y065711D02*
X096500Y065311D01*
X096100Y065711D02*
Y066611D01*
X111250Y093261D02*
Y093811D01*
X110700Y094361D02*
X111250Y093811D01*
X110700Y093211D02*
Y093611D01*
X110200Y094111D02*
X110700Y093611D01*
X106976Y094361D02*
X110700D01*
X106916Y094321D02*
X106926Y094311D01*
X106710Y094321D02*
X106916D01*
X106500Y094111D02*
X106710Y094321D01*
X106550Y093161D02*
X106750Y093361D01*
X106500Y093161D02*
X106550D01*
X106500Y093711D02*
Y094111D01*
X099250Y077811D02*
X100383D01*
X097050D02*
X099250D01*
X107024Y076011D02*
X107650D01*
X106524Y075511D02*
X107024Y076011D01*
X104350Y075511D02*
X106524D01*
X102650Y077211D02*
X104350Y075511D01*
X101517Y076444D02*
X101600Y076361D01*
X101517Y076444D02*
Y077211D01*
X100350Y076311D02*
X100383Y076344D01*
Y077211D01*
X096570Y075431D02*
X097150Y076011D01*
X096542Y075431D02*
X096570D01*
X096322Y075210D02*
X096542Y075431D01*
X096322Y074433D02*
Y075210D01*
X095900Y074011D02*
X096322Y074433D01*
X108850Y080611D02*
Y081661D01*
X108900Y082311D02*
X109350Y081861D01*
X108300Y082311D02*
X108900D01*
X108000Y082611D02*
X108300Y082311D01*
X109000Y082861D02*
Y083911D01*
X109350Y080611D02*
Y081861D01*
X108000Y082611D02*
Y083911D01*
X106250Y081611D02*
X106300Y081561D01*
Y080611D02*
Y081561D01*
X106750Y082711D02*
X107000Y082961D01*
X106700Y082661D02*
X106750Y082711D01*
X106000Y082611D02*
X106800Y081811D01*
X106000Y082611D02*
Y083911D01*
X107000Y082961D02*
Y083911D01*
X106800Y080611D02*
Y081811D01*
X110100Y083911D02*
X110350Y083661D01*
X109500Y083911D02*
X110100D01*
X110000Y084561D02*
X110350Y084211D01*
X108650Y084561D02*
X110000D01*
X108500Y084411D02*
X108650Y084561D01*
X108500Y083911D02*
Y084411D01*
X107500Y083911D02*
Y084661D01*
X107600Y084761D01*
X110350D01*
X110950D02*
Y085311D01*
Y084211D02*
Y084761D01*
Y083661D02*
Y084211D01*
X105450Y087861D02*
X106000D01*
X106050Y089061D02*
X106650D01*
X107000Y088711D01*
Y087861D02*
Y088711D01*
X107900Y088811D02*
X108000Y088711D01*
Y087861D02*
Y088711D01*
X108900Y088511D02*
X109000Y088411D01*
Y087861D02*
Y088411D01*
X103800Y092261D02*
Y093661D01*
X103600Y093861D02*
X103800Y093661D01*
X101550Y093861D02*
X103600D01*
X101053Y093364D02*
X101550Y093861D01*
X104200Y092411D02*
Y093711D01*
X103850Y094061D02*
X104200Y093711D01*
X101500Y094061D02*
X103850D01*
X100856Y093417D02*
X101500Y094061D01*
X100659Y093520D02*
X101550Y094411D01*
X103250D01*
X101750Y092611D02*
X102550D01*
X101644Y092504D02*
X101750Y092611D01*
X101644Y092011D02*
Y092504D01*
X101841Y092011D02*
X102650D01*
X109000Y086161D02*
Y087261D01*
X108000Y086161D02*
Y087261D01*
X107000Y086161D02*
Y087261D01*
X106000Y086161D02*
Y087261D01*
X098741Y088802D02*
X099675D01*
X098350Y088411D02*
X098741Y088802D01*
X096850Y088411D02*
X098350D01*
X096550Y088111D02*
X096850Y088411D01*
X093850Y088111D02*
X096550D01*
X093750Y088211D02*
X093850Y088111D01*
X093750Y088211D02*
Y088711D01*
X099750Y087611D02*
X100069Y087930D01*
X099750Y086861D02*
Y087611D01*
X100659Y085801D02*
Y088802D01*
X104300Y085461D02*
Y086111D01*
Y085011D02*
Y085461D01*
X103500D02*
Y086111D01*
Y085011D02*
Y085461D01*
X100856Y087004D02*
Y088802D01*
X100100Y087361D02*
Y087661D01*
X100266Y087826D01*
Y088802D01*
X100069Y087930D02*
Y088802D01*
X094550Y091011D02*
X095100D01*
X097859Y090702D02*
X099154D01*
X097500Y091061D02*
X097859Y090702D01*
X095750Y091061D02*
X097500D01*
X095700Y091011D02*
X095750Y091061D01*
X103750Y091761D02*
X104200Y091311D01*
X106910Y090751D02*
X107150Y090511D01*
Y089861D02*
Y090511D01*
X107100Y093711D02*
X107550D01*
X107650Y093611D01*
X107150Y092111D02*
Y093111D01*
X107100Y093161D02*
X107150Y093111D01*
X097850Y090111D02*
X099154D01*
X097550Y089811D02*
X097850Y090111D01*
X096450Y089811D02*
X097550D01*
X097500Y090211D02*
X097597Y090308D01*
X099154D01*
X097550Y090761D02*
X097806Y090505D01*
X096950Y090761D02*
X097550D01*
X097806Y090505D02*
X099154D01*
X098300Y085811D02*
Y086461D01*
X100856Y087004D02*
X101000Y086861D01*
X100659Y085801D02*
X100750Y085711D01*
X097750Y085811D02*
X098300D01*
X097100D02*
X097750D01*
X096950Y085961D02*
X097100Y085811D01*
X096900Y085961D02*
X096950D01*
X101400Y094561D02*
Y095661D01*
X101300Y094461D02*
X101400Y094561D01*
X099900Y094361D02*
X100000Y094461D01*
X099350Y094511D02*
X099550Y094711D01*
X099900Y094011D02*
Y094361D01*
X099350Y094011D02*
Y094511D01*
X101750Y084561D02*
Y085711D01*
X101700Y084511D02*
X101750Y084561D01*
X101050Y084511D02*
X101700D01*
X101750Y085711D02*
X101850Y085811D01*
X100750Y085711D02*
X101750D01*
X095250Y095611D02*
X095450D01*
X095500Y095561D01*
Y094511D02*
Y095561D01*
X096000Y094511D02*
Y096011D01*
X095850Y096161D02*
X096000Y096011D01*
X095250Y096161D02*
X095850D01*
X092550Y084611D02*
X093250D01*
X091850Y084011D02*
X092550D01*
X093250Y083811D02*
X094100D01*
X082700Y070911D02*
Y073111D01*
X082650Y073161D02*
X082700Y073111D01*
D34*
X095650Y080211D02*
X095700Y080161D01*
Y079161D02*
Y080161D01*
D35*
X088825Y075461D02*
D03*
D36*
X089050Y073111D02*
D03*
D37*
X083650Y089311D02*
D03*
D38*
X084100Y070261D02*
D03*
D39*
X110700Y091461D02*
D03*
Y090461D02*
D03*
Y089461D02*
D03*
X105600Y063911D02*
D03*
X106600D02*
D03*
X107600D02*
D03*
X101050D02*
D03*
X102050D02*
D03*
X103050D02*
D03*
X096500D02*
D03*
X097500D02*
D03*
X098500D02*
D03*
D40*
X110700Y088461D02*
D03*
D41*
X087950Y084661D02*
D03*
D42*
X104600Y063911D02*
D03*
X100050D02*
D03*
X095500D02*
D03*
D43*
X098317Y074011D02*
D03*
Y073011D02*
D03*
Y072011D02*
D03*
X101309D02*
D03*
Y073011D02*
D03*
Y074011D02*
D03*
Y075011D02*
D03*
X093750Y074011D02*
D03*
Y073011D02*
D03*
Y072011D02*
D03*
X096742D02*
D03*
Y073011D02*
D03*
Y074011D02*
D03*
Y075011D02*
D03*
X102883Y074011D02*
D03*
Y073011D02*
D03*
Y072011D02*
D03*
X105875D02*
D03*
Y073011D02*
D03*
Y074011D02*
D03*
Y075011D02*
D03*
X107450Y074011D02*
D03*
Y073011D02*
D03*
Y072011D02*
D03*
X110442D02*
D03*
Y073011D02*
D03*
Y074011D02*
D03*
Y075011D02*
D03*
D44*
X083300Y092196D02*
D03*
Y090070D02*
D03*
X090600Y084220D02*
D03*
Y086346D02*
D03*
X091050Y095751D02*
D03*
Y093625D02*
D03*
D45*
X083850Y087861D02*
D03*
Y086861D02*
D03*
Y085861D02*
D03*
D46*
Y084861D02*
D03*
D47*
X082475Y063786D02*
D03*
Y096069D02*
D03*
X110821D02*
D03*
Y063786D02*
D03*
D48*
X099400Y095661D02*
D03*
Y096661D02*
D03*
D49*
X100400Y095661D02*
D03*
X101400D02*
D03*
Y096661D02*
D03*
X100400D02*
D03*
D50*
X088826Y073761D02*
D03*
X085874D02*
D03*
D51*
X088404Y069426D02*
D03*
Y067261D02*
D03*
X086750Y069426D02*
D03*
X090057Y067261D02*
D03*
Y069426D02*
D03*
X091711Y067261D02*
D03*
Y069426D02*
D03*
D52*
X086750Y067261D02*
D03*
D53*
X097100Y089311D02*
D03*
X100450Y094061D02*
D03*
X099950Y090511D02*
D03*
X106000Y089761D02*
D03*
Y090261D02*
D03*
X108800Y089261D02*
D03*
Y089861D02*
D03*
X091450Y071611D02*
D03*
X096350Y069211D02*
D03*
X087950Y064861D02*
D03*
X104250Y077961D02*
D03*
Y083811D02*
D03*
X106800Y094961D02*
D03*
Y095611D02*
D03*
X108850Y092111D02*
D03*
X105300Y090661D02*
D03*
X100550Y091261D02*
D03*
X098650Y093111D02*
D03*
X101100Y090111D02*
D03*
X109700Y087161D02*
D03*
X099675Y092736D02*
D03*
X102475Y079586D02*
D03*
X102700Y080511D02*
D03*
X100600Y089811D02*
D03*
X101591Y090702D02*
D03*
X103750Y091761D02*
D03*
X103700Y065661D02*
D03*
X111250Y093261D02*
D03*
X110700Y093211D02*
D03*
X092350Y090211D02*
D03*
Y096311D02*
D03*
X095650Y080211D02*
D03*
X107650Y076011D02*
D03*
X101600Y076361D02*
D03*
X100350Y076311D02*
D03*
X108450Y076011D02*
D03*
X109200Y076411D02*
D03*
X105350Y076061D02*
D03*
X106650D02*
D03*
X108850Y081661D02*
D03*
X109000Y082861D02*
D03*
X106250Y081611D02*
D03*
X106750Y082711D02*
D03*
X105150Y089411D02*
D03*
X103200Y093011D02*
D03*
X106050Y089061D02*
D03*
X107900Y088811D02*
D03*
X108900Y088511D02*
D03*
X102250Y093511D02*
D03*
X102550Y092611D02*
D03*
X102650Y092011D02*
D03*
X099750Y086861D02*
D03*
X093750Y089711D02*
D03*
X103500Y085011D02*
D03*
X104300D02*
D03*
X100100Y087361D02*
D03*
X103250Y094411D02*
D03*
X096000Y095811D02*
D03*
X095550Y095211D02*
D03*
X096950Y090761D02*
D03*
X097450Y090311D02*
D03*
X098300Y086461D02*
D03*
X101000Y086861D02*
D03*
X085400Y070261D02*
D03*
X083800Y094261D02*
D03*
Y093611D02*
D03*
X083100Y093561D02*
D03*
D54*
X094100Y083811D02*
D03*
M02*
